<?xml version="1.0" standalone="no"?>
<!DOCTYPE svg PUBLIC "-//W3C//DTD SVG 1.1//EN" "http://www.w3.org/Graphics/SVG/1.1/DTD/svg11.dtd">
<svg width="100%" height="100%" viewBox="0 0 2250 750" version="1.1" xmlns="http://www.w3.org/2000/svg" xmlns:xlink="http://www.w3.org/1999/xlink" xml:space="preserve" style="fill-rule:evenodd;clip-rule:evenodd;stroke-linejoin:round;stroke-miterlimit:1.41421;">
    <g id="Layer1" transform="matrix(1,0,0,1,165,-165)">
        <g transform="matrix(2.64583,-1.35585e-31,-1.29422e-31,2.64583,-1074.89,-12.5226)">
            <path d="M1113.03,208.828C1113.03,271.449 1062.27,322.214 999.647,322.214C937.026,322.214 886.261,271.449 886.261,208.828C886.261,146.207 937.026,95.442 999.647,95.442C1062.27,95.442 1113.03,146.207 1113.03,208.828ZM1021.84,267.955C1024.39,267.955 1026.67,268.479 1028.71,269.528C1030.74,270.577 1032.36,272.088 1033.57,274.063C1034.78,276.038 1035.38,278.203 1035.38,280.558C1035.38,282.855 1034.79,284.985 1033.61,286.948C1032.43,288.911 1030.82,290.434 1028.76,291.518C1026.7,292.602 1024.39,293.144 1021.81,293.144C1019.26,293.144 1016.95,292.593 1014.87,291.492C1012.79,290.39 1011.17,288.875 1010.01,286.948C1008.85,285.02 1008.27,282.89 1008.27,280.558C1008.27,278.308 1008.85,276.193 1010.01,274.212C1011.17,272.232 1012.77,270.694 1014.81,269.598C1016.85,268.502 1019.19,267.955 1021.84,267.955ZM998.269,267.955L991.712,293.144L988.583,293.144L995.14,267.955L998.269,267.955ZM975.628,268.271L975.628,292.828L970.882,292.828L970.882,268.271L975.628,268.271ZM1013.18,280.558C1013.18,282.187 1013.55,283.652 1014.28,284.953C1015.02,286.253 1016.05,287.261 1017.37,287.976C1018.69,288.691 1020.18,289.048 1021.84,289.048C1024.36,289.048 1026.43,288.257 1028.06,286.675C1029.68,285.093 1030.49,283.054 1030.49,280.558C1030.49,278.929 1030.12,277.461 1029.39,276.155C1028.66,274.848 1027.63,273.837 1026.3,273.122C1024.97,272.408 1023.47,272.05 1021.81,272.05C1020.14,272.05 1018.65,272.411 1017.32,273.131C1015.99,273.852 1014.96,274.86 1014.25,276.155C1013.53,277.45 1013.18,278.917 1013.18,280.558ZM1019.33,167.772L1019.33,168.241L986.336,250.682L972.508,245.526L998.348,181.834L965.711,181.834L965.711,167.772L1019.33,167.772ZM945.457,167.772L945.457,249.627L930.457,249.627L930.457,167.772L945.457,167.772ZM1053.54,166.717C1058.7,166.717 1063.33,167.928 1067.43,170.35C1071.53,172.772 1074.7,176.18 1076.92,180.575C1079.15,184.969 1080.26,190.018 1080.26,195.721C1080.26,204.315 1077.65,213.592 1072.44,223.553C1067.22,233.514 1060.28,242.557 1051.61,250.682L1033.74,250.682C1038.39,246.659 1043.31,241.18 1048.5,234.246C1053.7,227.313 1057.37,221.209 1059.52,215.936C1056.59,217.186 1053.46,217.811 1050.14,217.811C1043.66,217.811 1038.3,215.496 1034.06,210.868C1029.82,206.239 1027.7,200.311 1027.7,193.084C1027.7,188.319 1028.82,183.914 1031.04,179.871C1033.27,175.829 1036.38,172.625 1040.36,170.262C1044.34,167.899 1048.74,166.717 1053.54,166.717ZM1042.59,192.85C1042.59,196.483 1043.62,199.471 1045.69,201.815C1047.76,204.159 1050.5,205.33 1053.89,205.33C1057.1,205.33 1059.75,204.149 1061.86,201.786C1063.97,199.422 1065.03,196.6 1065.03,193.319C1065.03,189.413 1063.96,186.239 1061.83,183.797C1059.71,181.356 1056.94,180.135 1053.54,180.135C1050.26,180.135 1047.62,181.307 1045.6,183.651C1043.59,185.995 1042.59,189.061 1042.59,192.85ZM984.439,129.693C986.782,129.693 988.672,130.478 990.108,132.048C991.543,133.619 992.261,135.663 992.261,138.183C992.261,139.835 991.924,141.312 991.25,142.613C990.576,143.913 989.618,144.927 988.376,145.654C987.134,146.38 985.728,146.744 984.157,146.744C982.88,146.744 981.597,146.421 980.308,145.777L980.308,154.706L975.984,154.706L975.984,130.009L980.273,130.009L980.273,131.064C981.573,130.15 982.962,129.693 984.439,129.693ZM1027.14,129.693C1028.85,129.693 1030.4,130.05 1031.79,130.765C1033.19,131.48 1034.27,132.482 1035.03,133.771C1035.79,135.06 1036.17,136.519 1036.17,138.148C1036.17,139.847 1035.81,141.335 1035.07,142.613C1034.34,143.89 1033.26,144.898 1031.84,145.636C1030.41,146.374 1028.85,146.744 1027.14,146.744C1025.41,146.744 1023.85,146.374 1022.44,145.636C1021.04,144.898 1019.97,143.89 1019.23,142.613C1018.5,141.335 1018.14,139.847 1018.14,138.148C1018.14,136.496 1018.52,135.028 1019.3,133.745C1020.07,132.461 1021.15,131.465 1022.53,130.756C1023.91,130.047 1025.45,129.693 1027.14,129.693ZM1022.67,138.148C1022.67,139.788 1023.07,141.098 1023.88,142.077C1024.68,143.055 1025.75,143.544 1027.1,143.544C1028.51,143.544 1029.61,143.076 1030.42,142.138C1031.23,141.201 1031.64,139.859 1031.64,138.113C1031.64,136.449 1031.23,135.163 1030.41,134.254C1029.6,133.346 1028.5,132.892 1027.1,132.892C1025.79,132.892 1024.72,133.372 1023.9,134.333C1023.08,135.294 1022.67,136.566 1022.67,138.148ZM980.308,142.613C981.386,143.234 982.394,143.544 983.331,143.544C984.691,143.544 985.78,143.058 986.601,142.085C987.421,141.113 987.831,139.859 987.831,138.324C987.831,136.648 987.465,135.335 986.733,134.386C986,133.437 984.96,132.962 983.612,132.962C983.109,132.962 982.622,133.047 982.153,133.217C981.685,133.387 981.069,133.747 980.308,134.298L980.308,142.613ZM960.708,130.009L960.708,140.169C960.708,141.236 960.975,142.047 961.508,142.604C962.041,143.161 962.747,143.439 963.626,143.439C964.353,143.439 965.05,143.216 965.718,142.771C966.386,142.326 966.925,141.699 967.335,140.89L967.335,130.009L971.659,130.009L971.659,146.427L967.335,146.427L967.335,144.195C965.776,145.894 964.089,146.744 962.273,146.744C960.515,146.744 959.097,146.169 958.019,145.021C956.941,143.872 956.401,142.372 956.401,140.521L956.401,130.009L960.708,130.009ZM1010.21,125.65L1010.56,125.65L1010.56,130.009L1016.19,130.009L1016.19,133.279L1010.56,133.279L1010.56,140.855C1010.56,141.593 1010.78,142.191 1011.23,142.648C1011.67,143.105 1012.28,143.333 1013.06,143.333C1014.06,143.333 1015.22,142.97 1016.54,142.244L1016.54,145.706C1014.98,146.398 1013.51,146.744 1012.14,146.744C1010.29,146.744 1008.85,146.24 1007.81,145.232C1006.77,144.224 1006.25,142.859 1006.25,141.136L1006.25,133.279L1003.69,133.279L1003.69,132.576L1010.21,125.65Z" style="fill:rgb(0,118,187);"/>
        </g>
        <g transform="matrix(1.17655,4.93038e-32,4.93038e-32,1.17655,2.89658,206.688)">
            <g transform="matrix(0.849941,0,0,0.849941,6.00762,2.48965)">
            </g>
            <path d="M538.177,341.683C538.396,305.127 508.894,275.27 472.337,275.051L339.815,274.258C303.258,274.04 273.401,303.542 273.182,340.098L272.389,472.621C272.171,509.178 301.673,539.035 338.23,539.254L470.752,540.046C507.309,540.265 537.166,510.763 537.385,474.206L538.177,341.683ZM502.3,418.497L507.5,435.797L524,435.797L503,368.397L483,368.397L462.5,435.797L478.2,435.797L483,418.497L502.3,418.497ZM341,435.797L356.1,435.797L356.1,411.597C357.5,411.897 359.3,411.997 361.3,411.997C370.3,411.997 378,409.697 383.2,404.897C387.3,401.197 389.4,395.497 389.4,388.897C389.4,382.297 386.6,376.697 382.2,373.297C377.7,369.697 371,367.897 361.6,367.897C352.3,367.897 345.7,368.497 341,369.297L341,435.797ZM288.4,435.797L303.6,435.797L303.6,408.697L327.8,408.697L327.8,396.297L303.6,396.297L303.6,380.897L329.5,380.897L329.5,368.397L288.4,368.397L288.4,435.797ZM455.4,397.197L430.3,397.197L430.3,409.097L440.7,409.097L440.7,423.297C439.5,423.797 436.7,424.197 433.3,424.197C420.8,424.197 412,416.097 412,402.097C412,387.397 421.7,380.297 434.4,380.297C441.8,380.297 446.3,381.497 450,383.197L453.2,370.897C449.9,369.397 443.2,367.697 434.5,367.697C412.4,367.697 396.1,380.497 396,402.897C396,412.797 399.4,421.597 405.5,427.497C411.7,433.397 420.6,436.497 432.9,436.497C441.8,436.497 450.7,434.297 455.4,432.697L455.4,397.197ZM485.2,407.097L489.2,392.797C490.3,388.897 491.3,383.797 492.3,379.797L492.5,379.797C493.5,383.797 494.7,388.797 495.9,392.797L500.1,407.097L485.2,407.097ZM356.1,379.997C357.2,379.697 359.3,379.497 362.3,379.497C370,379.497 374.3,383.197 374.3,389.397C374.3,396.197 369.3,400.297 361.2,400.297C358.9,400.297 357.4,400.197 356.1,399.897L356.1,379.997Z" style="fill:rgb(0,118,187);"/>
            <path d="M283.7,550L100.982,550C72.844,550 50,527.156 50,499.018L50,100.982C50,72.844 72.844,50 100.982,50L499.018,50C527.156,50 550,72.844 550,100.982L550,287.953C536.257,266.137 512.014,251.567 484.341,251.402L328.094,250.467C284.993,250.209 249.791,284.993 249.533,328.094L248.598,484.341C248.434,511.731 262.421,535.931 283.7,550ZM156.392,171.12L173.17,171.12L173.17,141.675L178.17,141.675C185.17,141.786 188.392,144.231 190.503,153.675C192.615,162.898 194.503,168.898 195.615,171.12L212.948,171.12C211.503,168.231 209.281,158.453 206.948,149.898C205.059,143.009 202.17,138.12 196.948,136.009L196.948,135.675C203.392,133.342 210.17,126.786 210.17,117.342C210.17,110.453 207.726,105.12 203.17,101.564C197.837,97.342 190.059,95.675 178.948,95.675C169.837,95.675 161.837,96.342 156.392,97.231L156.392,171.12ZM122.392,151.898L128.17,171.12L146.503,171.12L123.17,96.231L100.948,96.231L78.17,171.12L95.615,171.12L100.948,151.898L122.392,151.898ZM286.837,171.12L303.281,171.12L299.281,96.231L277.059,96.231L269.17,121.12C266.615,129.453 264.059,139.342 262.059,148.009L261.615,148.009C259.948,139.231 257.726,129.898 255.281,121.231L247.948,96.231L225.392,96.231L220.615,171.12L236.281,171.12L237.726,142.675C238.17,133.342 238.615,121.786 238.948,111.675L239.17,111.675C241.059,121.453 243.503,132.12 245.948,141.009L253.948,169.898L267.17,169.898L276.281,140.675C279.17,131.898 282.281,121.231 284.726,111.675L284.948,111.675C284.948,122.564 285.281,133.453 285.615,142.453L286.837,171.12ZM103.392,139.231L107.837,123.342C109.059,119.009 110.17,113.342 111.281,108.898L111.503,108.898C112.615,113.342 113.948,118.898 115.281,123.342L119.948,139.231L103.392,139.231ZM173.17,108.898C174.392,108.564 176.726,108.342 180.837,108.342C188.615,108.342 193.281,111.898 193.281,118.675C193.281,125.231 188.281,129.453 179.837,129.453L173.17,129.453L173.17,108.898Z" style="fill:rgb(0,118,187);"/>
        </g>
    </g>
</svg>
