<?xml version="1.0" standalone="no"?>
<!DOCTYPE svg PUBLIC "-//W3C//DTD SVG 1.1//EN" "http://www.w3.org/Graphics/SVG/1.1/DTD/svg11.dtd">
<svg width="100%" height="100%" viewBox="0 0 2250 750" version="1.1" xmlns="http://www.w3.org/2000/svg" xmlns:xlink="http://www.w3.org/1999/xlink" xml:space="preserve" style="fill-rule:evenodd;clip-rule:evenodd;stroke-linejoin:round;stroke-miterlimit:1.41421;">
    <g id="Layer1" transform="matrix(1,0,0,1,165,-165)">
        <g transform="matrix(1.06667,0,0,1.06667,-250,220)">
            <g transform="matrix(4.16667,0,0,4.16667,0,-1312.5)">
                <path d="M135.016,420.217C128.874,420.217 123.895,425.196 123.895,431.337C123.895,432.685 124.148,433.972 124.587,435.168C125.324,437.174 126.619,438.905 128.29,440.177C130.157,441.602 132.484,442.457 135.016,442.457C137.496,442.457 139.782,441.634 141.631,440.26C143.391,438.952 144.747,437.142 145.492,435.036C145.902,433.878 146.135,432.636 146.135,431.337C146.135,425.196 141.157,420.217 135.016,420.217" style="fill:rgb(0,118,187);fill-rule:nonzero;"/>
            </g>
            <g transform="matrix(4.16667,0,0,4.16667,0,-1312.5)">
                <path d="M135.016,391.562C122.3,391.562 110.968,397.566 103.682,406.88L112.296,418.536C116.779,410.612 125.278,405.248 135.016,405.248C144.735,405.248 153.224,410.595 157.713,418.499L166.322,406.848C159.034,397.552 147.716,391.562 135.016,391.562" style="fill:rgb(0,118,187);fill-rule:nonzero;"/>
            </g>
            <g transform="matrix(4.16667,0,0,4.16667,0,-1312.5)">
                <path d="M85.261,381.953L93.512,393.117C103.835,381.915 118.616,374.883 135.016,374.883C151.4,374.883 166.168,381.903 176.491,393.088L184.742,381.924C172.029,369.131 154.432,361.197 135.016,361.197C115.584,361.197 97.976,369.144 85.261,381.953" style="fill:rgb(0,118,187);fill-rule:nonzero;"/>
            </g>
            <g transform="matrix(4.16667,0,0,4.16667,0,-1312.5)">
                <path d="M135.016,331.543C109,331.543 85.282,341.553 67.5,357.918L75.682,368.99C91.137,354.274 112.039,345.229 135.016,345.229C157.975,345.229 178.866,354.264 194.319,368.963L202.5,357.892C184.722,341.542 161.016,331.543 135.016,331.543" style="fill:rgb(0,118,187);fill-rule:nonzero;"/>
            </g>
        </g>
        <g transform="matrix(2.57859,-1.20862e-31,1.77048e-32,2.57859,173.288,-175.307)">
            <path d="M416.884,324.596L435.498,324.596L435.498,348.657L416.884,348.657L416.884,373.513L390.44,373.513L390.44,348.657L304.409,348.657L416.884,185.222L416.884,324.596ZM390.44,324.596L390.44,265.918L350.035,324.596L390.44,324.596Z" style="fill:rgb(0,118,187);fill-rule:nonzero;"/>
            <path d="M465.801,360.801C465.801,356.564 467.353,352.894 470.455,349.792C473.557,346.69 477.265,345.139 481.577,345.139C485.89,345.139 489.598,346.69 492.7,349.792C495.802,352.894 497.353,356.602 497.353,360.915C497.353,365.303 495.802,369.049 492.7,372.151C489.674,375.177 485.966,376.691 481.577,376.691C477.113,376.691 473.368,375.177 470.341,372.151C467.315,369.124 465.801,365.341 465.801,360.801Z" style="fill:rgb(0,118,187);fill-rule:nonzero;"/>
            <path d="M596,234.409L596,263.597L610.566,248.975L596,234.409Z" style="fill:rgb(0,118,187);fill-rule:nonzero;"/>
            <path d="M596,326.674L610.827,311.847L596,297.019L596,326.674Z" style="fill:rgb(0,118,187);fill-rule:nonzero;"/>
            <path d="M583,359.09L583,296.103L555.22,323.871L545.647,314.395L579.541,280.34L545.343,246.157L554.948,236.662L583,264.602L583,201.992L629.846,248.957L598.542,280.322L630.156,311.847L583,359.09ZM658,279L657.728,279C657.584,258 654.516,186.152 588.015,186.152C521.187,186.152 518.611,256 518.512,279L518,279L518,281L518.512,281C518.611,304 521.187,373.849 588.015,373.849C654.516,373.849 657.584,302 657.728,281L658,281L658,280.01L658,279Z" style="fill:rgb(0,118,187);fill-rule:nonzero;"/>
        </g>
    </g>
</svg>
