<?xml version="1.0" encoding="UTF-8" standalone="no"?>
<!-- Generator: Adobe Illustrator 13.0.0, SVG Export Plug-In . SVG Version: 6.00 Build 14948)  -->

<svg
   xmlns:dc="http://purl.org/dc/elements/1.1/"
   xmlns:cc="http://creativecommons.org/ns#"
   xmlns:rdf="http://www.w3.org/1999/02/22-rdf-syntax-ns#"
   xmlns:svg="http://www.w3.org/2000/svg"
   xmlns="http://www.w3.org/2000/svg"
   xmlns:sodipodi="http://sodipodi.sourceforge.net/DTD/sodipodi-0.dtd"
   xmlns:inkscape="http://www.inkscape.org/namespaces/inkscape"
   version="1.1"
   id="Layer_1"
   x="0px"
   y="0px"
   width="290.828"
   height="145.80901"
   viewBox="0 0 290.828 145.80901"
   xml:space="preserve"
   inkscape:version="0.48.4 r9939"
   sodipodi:docname="Java_logo_new.svg"><metadata
     id="metadata33"><rdf:RDF><cc:Work
         rdf:about=""><dc:format>image/svg+xml</dc:format><dc:type
           rdf:resource="http://purl.org/dc/dcmitype/StillImage" /></cc:Work></rdf:RDF></metadata><defs
     id="defs31" /><sodipodi:namedview
     pagecolor="#ffffff"
     bordercolor="#666666"
     borderopacity="1"
     objecttolerance="10"
     gridtolerance="10"
     guidetolerance="10"
     inkscape:pageopacity="0"
     inkscape:pageshadow="2"
     inkscape:window-width="1548"
     inkscape:window-height="1165"
     id="namedview29"
     showgrid="false"
     fit-margin-top="0"
     fit-margin-left="0"
     fit-margin-right="0"
     fit-margin-bottom="0"
     inkscape:zoom="1.7163636"
     inkscape:cx="143.473"
     inkscape:cy="270.305"
     inkscape:window-x="75"
     inkscape:window-y="24"
     inkscape:window-maximized="0"
     inkscape:current-layer="Layer_1" /><path
     style="fill:#e76f00"
     d="m 278.577,31.449 h -2.038 v -1.14 h 5.486 v 1.14 h -2.024 v 5.688 h -1.424 v -5.688 z m 10.942,0.297 h -0.032 l -2.019,5.392 h -0.924 l -2.006,-5.392 h -0.025 v 5.392 h -1.342 V 30.31 h 1.975 l 1.86,4.835 1.854,-4.835 h 1.968 v 6.828 h -1.31 v -5.392 z"
     id="path3"
     inkscape:connector-curvature="0" /><path
     style="fill:#e76f00"
     d="m 98.862,95.552 c -6.303,5.467 -12.96,8.536 -18.934,8.536 -8.527,0 -13.134,-5.113 -13.134,-13.314 0,-8.871 4.936,-15.357 24.739,-15.357 h 7.328 v 20.135 m 17.393,19.623 V 54.433 c 0,-15.517 -8.85,-25.756 -30.188,-25.756 -12.457,0 -23.369,3.076 -32.238,6.999 l 2.56,10.752 c 6.983,-2.563 16.022,-4.949 24.894,-4.949 12.292,0 17.58,4.949 17.58,15.181 v 7.677 h -6.135 c -29.865,0 -43.337,11.593 -43.337,28.994 0,15.017 8.878,23.553 25.594,23.553 10.745,0 18.766,-4.436 26.264,-10.928 l 1.361,9.22 h 13.645 z"
     id="path21"
     inkscape:connector-curvature="0" /><path
     style="fill:#e76f00"
     d="M 174.298,115.175 H 152.606 L 126.5,30.215 h 18.943 l 16.199,52.2 3.601,15.699 c 8.195,-22.698 13.991,-45.726 16.89,-67.899 h 18.427 c -4.937,27.977 -13.821,58.685 -26.262,84.96"
     id="path23"
     inkscape:connector-curvature="0" /><path
     style="fill:#e76f00"
     d="m 257.511,95.552 c -6.315,5.467 -12.984,8.536 -18.958,8.536 -8.512,0 -13.131,-5.113 -13.131,-13.314 0,-8.871 4.948,-15.357 24.749,-15.357 h 7.34 v 20.135 m 17.39,19.623 V 54.433 c 0,-15.517 -8.872,-25.756 -30.185,-25.756 -12.466,0 -23.382,3.076 -32.247,6.999 l 2.556,10.752 c 6.986,-2.563 16.042,-4.949 24.907,-4.949 12.283,0 17.579,4.949 17.579,15.181 v 7.677 h -6.145 c -29.874,0 -43.34,11.593 -43.34,28.994 0,15.017 8.871,23.553 25.584,23.553 10.751,0 18.769,-4.436 26.28,-10.928 l 1.366,9.22 h 13.645 z"
     id="path25"
     inkscape:connector-curvature="0" /><path
     style="fill:#e76f00"
     d="m 30.32,129.603 c -4.958,7.239 -12.966,12.966 -21.733,16.206 L 0,135.704 c 6.673,-3.424 12.396,-8.954 15.055,-14.105 2.3,-4.581 3.252,-10.485 3.252,-24.604 V 0 h 18.478 v 95.666 c -10e-4,18.876 -1.51,26.501 -6.465,33.937"
     id="path27"
     inkscape:connector-curvature="0" /></svg>