<?xml version="1.0" encoding="UTF-8" standalone="no"?>
<!-- Created with Inkscape (http://www.inkscape.org/) -->

<svg
   xmlns:dc="http://purl.org/dc/elements/1.1/"
   xmlns:cc="http://creativecommons.org/ns#"
   xmlns:rdf="http://www.w3.org/1999/02/22-rdf-syntax-ns#"
   xmlns:svg="http://www.w3.org/2000/svg"
   xmlns="http://www.w3.org/2000/svg"
   xmlns:sodipodi="http://sodipodi.sourceforge.net/DTD/sodipodi-0.dtd"
   xmlns:inkscape="http://www.inkscape.org/namespaces/inkscape"
   width="338.03571"
   height="338.57144"
   id="svg2"
   version="1.1"
   inkscape:version="0.48.4 r9939"
   inkscape:export-filename="/home/russellbush/Pictures/Snickerdoodle_Pictures/zynq7010toprendered.png"
   inkscape:export-xdpi="300.11392"
   inkscape:export-ydpi="300.11392"
   sodipodi:docname="micronchip.svg">
  <defs
     id="defs4">
    <clipPath
       id="clipPath7605">
      <path
         id="path7607"
         d="m 0,792.03 612,0 0,-792 -612,0 0,792 z" />
    </clipPath>
    <clipPath
       id="clipPath7599">
      <path
         style="clip-rule:evenodd"
         id="path7601"
         d="m 48,748.74 116.7,0 0,-32.16 -116.7,0 0,32.16 z" />
    </clipPath>
    <clipPath
       id="clipPath7593">
      <path
         id="path7595"
         d="m 47.99,748.766 0,-32.215 116.734,0 0,32.215" />
    </clipPath>
  </defs>
  <sodipodi:namedview
     id="base"
     pagecolor="#ffffff"
     bordercolor="#666666"
     borderopacity="1.0"
     inkscape:pageopacity="0.0"
     inkscape:pageshadow="2"
     inkscape:zoom="3.6203868"
     inkscape:cx="158.16371"
     inkscape:cy="170.59801"
     inkscape:document-units="px"
     inkscape:current-layer="layer1"
     showgrid="true"
     inkscape:snap-grids="true"
     inkscape:snap-object-midpoints="true"
     inkscape:snap-center="true"
     fit-margin-top="0"
     fit-margin-left="0"
     fit-margin-right="0"
     fit-margin-bottom="0"
     inkscape:window-width="1855"
     inkscape:window-height="1056"
     inkscape:window-x="65"
     inkscape:window-y="24"
     inkscape:window-maximized="1"
     showguides="true"
     inkscape:guide-bbox="true">
    <inkscape:grid
       type="xygrid"
       id="grid2985"
       empspacing="5"
       visible="true"
       enabled="true"
       snapvisiblegridlinesonly="true"
       originx="-210.71428px"
       originy="-361.07141px" />
  </sodipodi:namedview>
  <metadata
     id="metadata7">
    <rdf:RDF>
      <cc:Work
         rdf:about="">
        <dc:format>image/svg+xml</dc:format>
        <dc:type
           rdf:resource="http://purl.org/dc/dcmitype/StillImage" />
        <dc:title></dc:title>
      </cc:Work>
    </rdf:RDF>
  </metadata>
  <g
     inkscape:label="Layer 1"
     inkscape:groupmode="layer"
     id="layer1"
     transform="translate(-210.71428,-352.71933)"
     style="opacity:1">
    <rect
       style="opacity:0.5;fill:#000000;fill-opacity:1;stroke:none"
       id="rect4239-6"
       width="338.03571"
       height="338.57144"
       x="210.71428"
       y="352.71933"
       rx="0"
       ry="0" />
    <text
       xml:space="preserve"
       style="font-size:330.18429565px;font-style:normal;font-variant:normal;font-weight:normal;font-stretch:normal;text-align:start;line-height:125%;letter-spacing:0px;word-spacing:0px;writing-mode:lr-tb;text-anchor:start;fill:#ffffff;fill-opacity:1;stroke:none;font-family:Source Sans Pro;-inkscape-font-specification:Source Sans Pro"
       x="311.2189"
       y="632.61682"
       id="text4241"
       sodipodi:linespacing="125%"><tspan
         sodipodi:role="line"
         id="tspan4243"
         x="311.2189"
         y="632.61682">?</tspan></text>
    <rect
       style="fill:#000000;fill-opacity:1;stroke:none"
       id="rect4239"
       width="338.03571"
       height="338.57144"
       x="210.71428"
       y="352.71933"
       rx="0"
       ry="0" />
    <path
       sodipodi:type="arc"
       style="fill:#8c8479;fill-opacity:1;stroke:none"
       id="path4237"
       sodipodi:cx="129.8046"
       sodipodi:cy="367.73129"
       sodipodi:rx="27.526659"
       sodipodi:ry="28.53681"
       d="m 157.33125,367.73129 a 27.526659,28.53681 0 1 1 -55.05331,0 27.526659,28.53681 0 1 1 55.05331,0 z"
       transform="matrix(0.28982302,0,0,0.28982302,197.37964,560.78519)" />
    <g
       id="layer1-5"
       transform="matrix(0.7126726,0,0,0.7126726,123.8881,47.852781)"
       style="fill:#8c8479;fill-opacity:1">
      <g
         id="g7589"
         transform="matrix(2.5706941,0,0,-2.5706941,101.60668,2415.8069)"
         style="fill:#8c8479;fill-opacity:1">
        <g
           id="g7591"
           clip-path="url(#clipPath7593)"
           style="fill:#8c8479;fill-opacity:1">
          <g
             id="g7597"
             clip-path="url(#clipPath7599)"
             style="fill:#8c8479;fill-opacity:1">
            <g
               id="g7603"
               clip-path="url(#clipPath7605)"
               style="fill:#8c8479;fill-opacity:1">
              <g
                 id="g7609"
                 transform="translate(103.736,723.308)"
                 style="fill:#8c8479;fill-opacity:1">
                <path
                   style="fill:#8c8479;fill-opacity:1;fill-rule:nonzero;stroke:none"
                   id="path7611"
                   d="m 0,0 c -5.319,0 -10.092,3.021 -10.092,7.245 0,4.226 4.773,7.25 10.13,7.25 2.329,0 4.504,-0.588 6.869,-1.907 L 5.24,10.446 c -1.516,0.733 -3.301,1.172 -5.202,1.172 -2.252,0 -4.852,-1.261 -4.852,-4.373 0,-3.11 2.562,-4.37 4.852,-4.37 1.901,0 3.725,0.381 5.277,1.057 l 1.67,-2.26 C 5.006,0.614 2.599,0 0,0"
                   inkscape:connector-curvature="0" />
              </g>
              <g
                 id="g7613"
                 transform="translate(134.119,723.363)"
                 style="fill:#8c8479;fill-opacity:1">
                <path
                   style="fill:#8c8479;fill-opacity:1;fill-rule:nonzero;stroke:none"
                   id="path7615"
                   d="m 0,0 c 5.355,0 10.13,3.022 10.13,7.245 0,4.226 -4.775,7.25 -10.13,7.25 -5.357,0 -10.132,-3.024 -10.132,-7.25 C -10.132,3.022 -5.357,0 0,0 z m 4.852,7.245 c 0,-3.11 -2.6,-4.37 -4.852,-4.37 -2.253,0 -4.852,1.26 -4.852,4.37 0,3.113 2.599,4.373 4.852,4.373 2.252,0 4.852,-1.26 4.852,-4.373"
                   inkscape:connector-curvature="0" />
              </g>
              <g
                 id="g7617"
                 transform="translate(146.405,723.713)"
                 style="fill:#8c8479;fill-opacity:1">
                <path
                   style="fill:#8c8479;fill-opacity:1;fill-rule:nonzero;stroke:none"
                   id="path7619"
                   d="m 0,0 5.003,0 0,8.628 c 0,1.165 0.905,2.536 2.524,2.545 C 8.658,11.164 9.743,10.39 9.743,9.408 L 9.733,0 l 5.016,0 0,9.675 c 0,2.548 -2.732,4.675 -5.991,4.675 -0.032,0 -0.063,-0.004 -0.095,-0.005 C 8.631,14.346 8.6,14.35 8.569,14.35 7.222,14.35 5.944,13.957 4.9,13.299 4.891,13.336 4.61,14.261 0,14.261 L 0,0"
                   inkscape:connector-curvature="0" />
              </g>
              <path
                 style="fill:#8c8479;fill-opacity:1;fill-rule:nonzero;stroke:none"
                 id="path7621"
                 d="m 86.338,723.713 4.9009,0 0,13.791 -4.9009,0 0,-13.791 z"
                 inkscape:connector-curvature="0" />
              <g
                 id="g7623"
                 transform="translate(113.058,723.713)"
                 style="fill:#8c8479;fill-opacity:1">
                <path
                   style="fill:#8c8479;fill-opacity:1;fill-rule:nonzero;stroke:none"
                   id="path7625"
                   d="m 0,0 4.903,0 0,8.363 c 0,1.321 1.551,2.378 3.221,2.378 0.816,0 1.584,-0.163 2.229,-0.449 l 0,0 0,3.627 C 9.775,14.007 9.151,14.055 8.6,14.055 7.286,14.055 5.968,13.674 4.889,13.034 4.809,13.197 4.208,13.968 0,13.968 L 0,0"
                   inkscape:connector-curvature="0" />
              </g>
              <g
                 id="g7627"
                 transform="translate(76.988,729.21)"
                 style="fill:#8c8479;fill-opacity:1">
                <path
                   style="fill:#8c8479;fill-opacity:1;fill-rule:nonzero;stroke:none"
                   id="path7629"
                   d="m 0,0 -0.001,-5.498 5.019,0 0,10.038 C 3.564,3.04 1.887,1.513 0,0"
                   inkscape:connector-curvature="0" />
              </g>
              <g
                 id="g7631"
                 transform="translate(82.006,733.75)"
                 style="fill:#8c8479;fill-opacity:1">
                <path
                   style="fill:#8c8479;fill-opacity:1;fill-rule:nonzero;stroke:none"
                   id="path7633"
                   d="m 0,0 c 5.527,5.702 7.816,11.002 6.034,13.553 -1.86,2.664 -7.639,1.585 -15.13,-2.373 -0.335,-0.164 -0.632,-0.338 -0.851,-0.489 -0.362,-0.251 -0.151,-0.434 0.116,-0.337 0.274,0.099 0.586,0.219 0.938,0.392 5.615,2.663 9.995,3.141 11.707,1.282 C 5.423,9.197 0.08,-0.081 -9.172,-6.944 c -1.235,-0.916 -3.141,-2.257 -4.382,-3.002 -0.084,-0.052 -0.167,-0.103 -0.248,-0.155 -0.328,-0.215 -0.62,-0.415 -0.85,-0.595 -0.224,-0.174 -0.181,-0.451 0.223,-0.277 0.246,0.105 0.545,0.264 0.863,0.459 0.072,0.044 0.143,0.084 0.218,0.13 1.395,0.847 3.466,2.277 4.881,3.265 1.217,0.85 2.367,1.713 3.449,2.579 C -3.131,-3.027 -1.454,-1.499 0,0"
                   inkscape:connector-curvature="0" />
              </g>
              <g
                 id="g7635"
                 transform="translate(57.369,716.551)"
                 style="fill:#8c8479;fill-opacity:1">
                <path
                   style="fill:#8c8479;fill-opacity:1;fill-rule:nonzero;stroke:none"
                   id="path7637"
                   d="m 0,0 5.019,0 0,5.201 C 6.391,6.012 7.78,6.901 9.145,7.832 9.452,8.043 9.724,8.253 9.921,8.433 10.246,8.73 10.011,8.883 9.76,8.751 9.502,8.615 9.197,8.431 8.867,8.221 1.114,3.262 -4.12,1.749 -6.053,4.373 -7.732,6.651 -4.98,11.055 0,16.029 L 0,4.484 c 1.413,0.48 3.083,1.245 5.018,2.321 L 5.017,17.516 6.121,15.167 c 1.21,-2.594 3.406,-4.145 6.198,-4.145 2.791,0 4.987,1.551 6.197,4.145 l 1.104,2.349 -0.001,-2.733 c 1.796,1.742 3.329,3.481 4.492,5.163 0.145,0.208 0.132,0.383 0.053,0.575 -0.774,1.615 -2.421,2.728 -4.335,2.728 -1.893,0 -3.537,-1.098 -4.325,-2.686 l -2.1,-4.455 c -0.217,-0.434 -0.617,-0.675 -1.085,-0.675 -0.467,0 -0.869,0.241 -1.086,0.675 l -2.1,4.455 c -0.4,0.807 -1.022,1.487 -1.785,1.961 1.536,1.219 3.029,2.308 4.499,3.2 0.334,0.203 0.608,0.406 0.839,0.583 0.227,0.173 0.185,0.45 -0.22,0.28 C 12.22,26.484 11.901,26.327 11.582,26.133 10.08,25.223 8.545,24.292 7.077,23.289 6.899,23.168 6.723,23.046 6.547,22.924 6.007,23.134 5.421,23.249 4.808,23.249 2.148,23.249 0,21.1 0,18.44 L 0,17.778 C -7.09,11.456 -10.812,5.196 -8.867,2.409 -7.439,0.365 -4.053,0.837 0,2.598 L 0,0"
                   inkscape:connector-curvature="0" />
              </g>
              <g
                 id="g7639"
                 transform="translate(163.071,736.302)"
                 style="fill:#8c8479;fill-opacity:1">
                <path
                   style="fill:#8c8479;fill-opacity:1;fill-rule:nonzero;stroke:none"
                   id="path7641"
                   d="m 0,0 0.182,0 c 0.207,0 0.382,0.075 0.382,0.269 0,0.138 -0.1,0.276 -0.382,0.276 C 0.1,0.545 0.044,0.539 0,0.533 L 0,0 z m 0,-0.871 -0.251,0 0,1.573 C -0.119,0.72 0.006,0.739 0.195,0.739 0.433,0.739 0.589,0.689 0.683,0.62 0.777,0.551 0.827,0.445 0.827,0.295 0.827,0.088 0.689,-0.037 0.52,-0.088 l 0,-0.012 c 0.138,-0.025 0.232,-0.151 0.263,-0.382 0.038,-0.244 0.075,-0.339 0.1,-0.389 l -0.263,0 C 0.583,-0.821 0.545,-0.677 0.514,-0.47 0.477,-0.269 0.376,-0.194 0.175,-0.194 L 0,-0.194 0,-0.871 z M 0.263,1.14 c -0.62,0 -1.127,-0.532 -1.127,-1.19 0,-0.67 0.507,-1.196 1.133,-1.196 0.627,-0.007 1.128,0.526 1.128,1.19 0,0.664 -0.501,1.196 -1.128,1.196 l -0.006,0 z m 0.006,0.22 c 0.771,0 1.385,-0.627 1.385,-1.41 0,-0.796 -0.614,-1.416 -1.391,-1.416 -0.77,0 -1.396,0.62 -1.396,1.416 0,0.783 0.626,1.41 1.396,1.41 l 0.006,0"
                   inkscape:connector-curvature="0" />
              </g>
            </g>
          </g>
        </g>
      </g>
    </g>
    <g
       style="font-size:10px;font-style:normal;font-variant:normal;font-weight:normal;font-stretch:normal;text-align:start;line-height:125%;letter-spacing:0px;word-spacing:0px;writing-mode:lr-tb;text-anchor:start;fill:#8c8479;fill-opacity:1;stroke:none;font-family:Source Sans Pro;-inkscape-font-specification:Source Sans Pro"
       id="text3964">
      <path
         d="m 298.536,491.27818 -9.756,0 0,-1.692 8.208,-13.968 3.024,0 0,14.184 1.224,0 c 0.64798,10e-6 0.97198,0.25201 0.972,0.756 -2e-5,0.48001 -0.32402,0.72001 -0.972,0.72 l -1.224,0 0,4.608 1.224,0 c 0.64798,0 0.97198,0.24 0.972,0.72 -2e-5,0.504 -0.32402,0.756 -0.972,0.756 l -5.436,0 c -0.64801,0 -0.97201,-0.252 -0.972,-0.756 -10e-6,-0.48 0.32399,-0.72 0.972,-0.72 l 2.736,0 0,-4.608 m 0,-1.476 0,-12.708 -0.864,0 -7.488,12.708 8.352,0"
         style="font-size:36px;fill:#8c8479;font-family:FreeMono;-inkscape-font-specification:FreeMono"
         id="path4078" />
      <path
         d="m 311.04994,495.88618 0,-17.316 -1.944,0 c -0.648,2e-5 -0.972,-0.25198 -0.972,-0.756 0,-0.47998 0.324,-0.71998 0.972,-0.72 l 9.288,0 c 1.75198,2e-5 3.21598,0.50402 4.392,1.512 1.17598,0.98402 1.76398,2.22002 1.764,3.708 -2e-5,1.77602 -1.02002,3.21601 -3.06,4.32 3.04798,1.08001 4.57198,2.82001 4.572,5.22 -2e-5,1.51201 -0.58802,2.80801 -1.764,3.888 -1.15202,1.08 -2.54402,1.62 -4.176,1.62 l -11.016,0 c -0.648,0 -0.972,-0.252 -0.972,-0.756 0,-0.48 0.324,-0.72 0.972,-0.72 l 1.944,0 m 1.476,-9.792 5.292,0 c 1.53598,1e-5 2.79598,-0.35999 3.78,-1.08 0.98398,-0.71998 1.47598,-1.63198 1.476,-2.736 -2e-5,-1.05598 -0.44402,-1.93198 -1.332,-2.628 -0.88802,-0.71998 -1.99202,-1.07998 -3.312,-1.08 l -5.904,0 0,7.524 m 12.06,5.76 c -2e-5,-0.50399 -0.10802,-0.98399 -0.324,-1.44 -0.19202,-0.45599 -0.51602,-0.89999 -0.972,-1.332 -0.45602,-0.45599 -1.15202,-0.81599 -2.088,-1.08 -0.91202,-0.28799 -2.01602,-0.43199 -3.312,-0.432 l -5.364,0 0,8.316 7.488,0 c 1.27198,0 2.35198,-0.384 3.24,-1.152 0.88798,-0.79199 1.33198,-1.75199 1.332,-2.88"
         style="font-size:36px;fill:#8c8479;font-family:FreeMono;-inkscape-font-specification:FreeMono"
         id="path4080" />
      <path
         d="m 343.57988,490.59418 -9.57601,0 -1.944,5.292 2.84401,0 c 0.64799,0 0.97199,0.24 0.97199,0.72 0,0.504 -0.324,0.756 -0.97199,0.756 l -5.43601,0 c -0.648,0 -0.972,-0.252 -0.972,-0.756 0,-0.48 0.324,-0.72 0.972,-0.72 l 1.116,0 6.444,-17.316 -4.32,0 c -0.648,2e-5 -0.972,-0.25198 -0.97199,-0.756 -1e-5,-0.47998 0.32399,-0.71998 0.97199,-0.72 l 7.344,0 7.092,18.792 1.332,0 c 0.64798,0 0.97198,0.24 0.972,0.72 -2e-5,0.504 -0.32402,0.756 -0.972,0.756 l -5.616,0 c -0.64801,0 -0.97201,-0.252 -0.972,-0.756 -1e-5,-0.48 0.32399,-0.72 0.972,-0.72 l 2.736,0 -2.01599,-5.292 m -0.54001,-1.476 -4.03199,-10.548 -0.54001,0 -3.88799,10.548 8.45999,0"
         style="font-size:36px;fill:#8c8479;font-family:FreeMono;-inkscape-font-specification:FreeMono"
         id="path4082" />
      <path
         d="m 355.44581,495.92218 c 0.072,0 0.3,0.084 0.684,0.252 0.408,0.168 0.948,0.252 1.62,0.252 0.95999,0 1.94399,-0.216 2.952,-0.648 1.00799,-0.456 1.96799,-1.09199 2.88,-1.908 0.91199,-0.81599 1.65599,-1.91999 2.232,-3.312 0.59999,-1.39199 0.89999,-2.93999 0.9,-4.644 -1e-5,-0.11999 -0.024,-0.63599 -0.072,-1.548 -1.46401,2.92801 -3.45601,4.39201 -5.976,4.392 -1.63201,1e-5 -3.04801,-0.65999 -4.248,-1.98 -1.176,-1.31999 -1.764,-2.89198 -1.764,-4.716 0,-1.94398 0.6,-3.58798 1.8,-4.932 1.19999,-1.34398 2.67599,-2.01598 4.428,-2.016 2.13599,2e-5 3.87599,0.99602 5.22,2.988 1.34398,1.99202 2.01598,4.56002 2.016,7.704 -2e-5,3.57601 -1.02001,6.49201 -3.06,8.748 -2.01601,2.232 -4.50001,3.348 -7.452,3.348 -0.768,0 -1.44,-0.132 -2.016,-0.396 -0.552,-0.24 -0.828,-0.528 -0.828,-0.864 0,-0.192 0.06,-0.36 0.18,-0.504 0.144,-0.144 0.312,-0.216 0.504,-0.216 m 10.98,-13.5 c -0.50401,-1.94398 -1.20001,-3.39598 -2.088,-4.356 -0.88801,-0.98398 -2.05201,-1.47598 -3.492,-1.476 -1.34401,2e-5 -2.47201,0.52802 -3.384,1.584 -0.888,1.05602 -1.332,2.35202 -1.332,3.888 0,1.41602 0.444,2.64002 1.332,3.672 0.91199,1.03201 1.99199,1.54801 3.24,1.548 0.59999,1e-5 1.18799,-0.14399 1.764,-0.432 0.59999,-0.28799 1.07999,-0.57599 1.44,-0.864 0.35999,-0.31199 0.74399,-0.75599 1.152,-1.332 0.43199,-0.59998 0.69599,-0.99598 0.792,-1.188 0.11999,-0.19198 0.31199,-0.53998 0.576,-1.044"
         style="font-size:36px;fill:#8c8479;font-family:FreeMono;-inkscape-font-specification:FreeMono"
         id="path4084" />
      <path
         d="m 384.84375,486.09418 c 2.68798,1.22401 4.03198,3.04801 4.032,5.472 -2e-5,1.75201 -0.66002,3.25201 -1.98,4.5 -1.32001,1.224 -2.90401,1.836 -4.752,1.836 -1.84801,0 -3.43201,-0.612 -4.752,-1.836 -1.32,-1.24799 -1.98,-2.74799 -1.98,-4.5 0,-2.39999 1.34399,-4.22399 4.032,-5.472 -2.44801,-1.24798 -3.672,-2.92798 -3.672,-5.04 0,-1.60798 0.62399,-2.99998 1.872,-4.176 1.27199,-1.17598 2.77199,-1.76398 4.5,-1.764 1.72799,2e-5 3.21599,0.58802 4.464,1.764 1.27198,1.17602 1.90798,2.56802 1.908,4.176 -2e-5,2.11202 -1.22402,3.79202 -3.672,5.04 m 0.756,-8.172 c -0.93601,-0.88798 -2.08801,-1.33198 -3.456,-1.332 -1.36801,2e-5 -2.53201,0.44402 -3.492,1.332 -0.93601,0.86402 -1.40401,1.93202 -1.404,3.204 -10e-6,1.17602 0.46799,2.18402 1.404,3.024 0.95999,0.81602 2.12399,1.22401 3.492,1.224 1.34399,10e-6 2.49599,-0.40798 3.456,-1.224 0.95998,-0.81598 1.43998,-1.81198 1.44,-2.988 -2e-5,-1.27198 -0.48002,-2.35198 -1.44,-3.24 m -3.456,8.892 c -1.46401,10e-6 -2.71201,0.45601 -3.744,1.368 -1.00801,0.91201 -1.51201,2.04001 -1.512,3.384 -10e-6,1.34401 0.50399,2.49601 1.512,3.456 1.03199,0.936 2.27999,1.404 3.744,1.404 1.43999,0 2.67599,-0.468 3.708,-1.404 1.03198,-0.95999 1.54798,-2.09999 1.548,-3.42 -2e-5,-1.36799 -0.50402,-2.50799 -1.512,-3.42 -1.00801,-0.91199 -2.25601,-1.36799 -3.744,-1.368"
         style="font-size:36px;fill:#8c8479;font-family:FreeMono;-inkscape-font-specification:FreeMono"
         id="path4086" />
    </g>
    <g
       transform="matrix(0,1,-1,0,0,0)"
       style="font-size:10px;font-style:normal;font-variant:normal;font-weight:normal;font-stretch:normal;text-align:start;line-height:125%;letter-spacing:0px;word-spacing:0px;writing-mode:lr-tb;text-anchor:start;fill:#8c8479;fill-opacity:1;stroke:none;font-family:Source Sans Pro;-inkscape-font-specification:Source Sans Pro"
       id="text3964-9">
      <path
         d="m 428.97126,-235.64 0,-17.316 -1.224,0 c -0.648,2e-5 -0.972,-0.25198 -0.972,-0.756 0,-0.47998 0.324,-0.71998 0.972,-0.72 l 7.92,0 c 2.32799,2e-5 4.28399,0.88802 5.868,2.664 1.60799,1.75201 2.41199,3.90001 2.412,6.444 l 0,2.016 c -1e-5,2.56801 -0.80401,4.74 -2.412,6.516 -1.58401,1.752 -3.54001,2.628 -5.868,2.628 l -7.92,0 c -0.648,0 -0.972,-0.252 -0.972,-0.756 0,-0.48 0.324,-0.72 0.972,-0.72 l 1.224,0 m 13.5,-9.972 c -10e-6,-0.47999 -0.10801,-1.07999 -0.324,-1.8 -0.21601,-0.71999 -0.56401,-1.51199 -1.044,-2.376 -0.45601,-0.88798 -1.17601,-1.63198 -2.16,-2.232 -0.96001,-0.62398 -2.07601,-0.93598 -3.348,-0.936 l -5.148,0 0,17.316 5.4,0 c 1.72799,0 3.26399,-0.744 4.608,-2.232 1.34399,-1.488 2.01599,-3.19199 2.016,-5.112 l 0,-2.628"
         style="font-size:36px;fill:#8c8479;font-family:FreeMono;-inkscape-font-specification:FreeMono"
         id="path4051" />
      <path
         d="m 449.0812,-245.864 c 0,-0.45599 0.06,-1.00799 0.18,-1.656 0.144,-0.67199 0.42,-1.45199 0.828,-2.34 0.408,-0.88798 0.912,-1.69198 1.512,-2.412 0.6,-0.71998 1.44,-1.33198 2.52,-1.836 1.07999,-0.52798 2.30399,-0.79198 3.672,-0.792 2.42399,2e-5 4.49999,0.82802 6.228,2.484 l 0,-1.044 c -2e-5,-0.64798 0.25198,-0.97198 0.756,-0.972 0.47998,2e-5 0.71998,0.32402 0.72,0.972 l 0,4.032 c -2e-5,0.64801 -0.25202,0.97201 -0.756,0.972 -0.43202,10e-6 -0.67202,-0.28799 -0.72,-0.864 -0.072,-1.10399 -0.73201,-2.06398 -1.98,-2.88 -1.22401,-0.81598 -2.64001,-1.22398 -4.248,-1.224 -1.99201,2e-5 -3.69601,0.76802 -5.112,2.304 -1.416,1.51201 -2.124,3.33601 -2.124,5.472 l 0,2.556 c 0,2.16001 0.78,4.044 2.34,5.652 1.55999,1.584 3.39599,2.376 5.508,2.376 1.24799,0 2.36399,-0.252 3.348,-0.756 0.98399,-0.504 1.95599,-1.332 2.916,-2.484 0.21598,-0.24 0.43198,-0.36 0.648,-0.36 0.47998,0 0.71998,0.228 0.72,0.684 -2e-5,0.216 -0.19202,0.552 -0.576,1.008 -0.38402,0.456 -0.88802,0.948 -1.512,1.476 -0.62401,0.504 -1.44001,0.948 -2.448,1.332 -1.00801,0.384 -2.04001,0.576 -3.096,0.576 -2.44801,0 -4.62001,-0.936 -6.516,-2.808 -1.872,-1.896 -2.808,-4.056 -2.808,-6.48 l 0,-2.988"
         style="font-size:36px;fill:#8c8479;font-family:FreeMono;-inkscape-font-specification:FreeMono"
         id="path4053" />
      <path
         d="m 479.99114,-243.308 0,7.668 3.78,0 c 0.64798,0 0.97198,0.24 0.972,0.72 -2e-5,0.504 -0.32402,0.756 -0.972,0.756 l -9.036,0 c -0.64801,0 -0.97201,-0.252 -0.972,-0.756 -1e-5,-0.48 0.32399,-0.72 0.972,-0.72 l 3.78,0 0,-7.668 -6.444,-9.648 -0.864,0 c -0.648,2e-5 -0.972,-0.25198 -0.972,-0.756 0,-0.47998 0.324,-0.71998 0.972,-0.72 l 3.996,0 c 0.64799,2e-5 0.97199,0.24002 0.972,0.72 -10e-6,0.50402 -0.32401,0.75602 -0.972,0.756 l -1.368,0 5.472,8.172 5.364,-8.172 -1.44,0 c -0.67201,2e-5 -1.00801,-0.25198 -1.008,-0.756 -10e-6,-0.47998 0.33599,-0.71998 1.008,-0.72 l 3.96,0 c 0.64798,2e-5 0.97198,0.24002 0.972,0.72 -2e-5,0.50402 -0.32402,0.75602 -0.972,0.756 l -0.864,0 -6.336,9.648"
         style="font-size:36px;fill:#8c8479;font-family:FreeMono;-inkscape-font-specification:FreeMono"
         id="path4055" />
      <path
         d="m 494.48508,-253.172 c -10e-6,-0.26398 0.22799,-0.63598 0.684,-1.116 0.47999,-0.47998 1.23599,-0.94798 2.268,-1.404 1.03199,-0.47998 2.15999,-0.71998 3.384,-0.72 1.79998,2e-5 3.29998,0.54002 4.5,1.62 1.22398,1.05602 1.83598,2.36402 1.836,3.924 -2e-5,1.39201 -0.39602,2.49601 -1.188,3.312 -0.76802,0.81601 -1.60802,1.34401 -2.52,1.584 1.41598,0.57601 2.51998,1.38001 3.312,2.412 0.79198,1.00801 1.18798,2.12401 1.188,3.348 -2e-5,1.824 -0.74402,3.384 -2.232,4.68 -1.46402,1.272 -3.22802,1.908 -5.292,1.908 -1.41601,0 -2.94001,-0.348 -4.572,-1.044 -1.60801,-0.72 -2.41201,-1.38 -2.412,-1.98 -10e-6,-0.168 0.072,-0.324 0.216,-0.468 0.14399,-0.144 0.29999,-0.216 0.468,-0.216 0.16799,0 0.50399,0.192 1.008,0.576 0.50399,0.36 1.22399,0.732 2.16,1.116 0.93599,0.36 1.99199,0.54 3.168,0.54 1.63198,0 3.03598,-0.504 4.212,-1.512 1.19998,-1.008 1.79998,-2.208 1.8,-3.6 -2e-5,-1.41599 -0.63602,-2.62799 -1.908,-3.636 -1.27202,-1.03199 -2.78401,-1.54799 -4.536,-1.548 -0.64801,10e-6 -0.97201,-0.25199 -0.972,-0.756 -10e-6,-0.47999 0.32399,-0.71999 0.972,-0.72 3.76798,1e-5 5.65198,-1.31999 5.652,-3.96 -2e-5,-1.17598 -0.46802,-2.14798 -1.404,-2.916 -0.93602,-0.79198 -2.10002,-1.18798 -3.492,-1.188 -1.00801,2e-5 -1.87201,0.13202 -2.592,0.396 -0.69601,0.24002 -1.18801,0.51602 -1.476,0.828 -0.26401,0.31202 -0.52801,0.60002 -0.792,0.864 -0.26401,0.24002 -0.50401,0.36002 -0.72,0.36 -0.19201,2e-5 -0.36001,-0.06 -0.504,-0.18 -0.14401,-0.14398 -0.21601,-0.31198 -0.216,-0.504"
         style="font-size:36px;fill:#8c8479;font-family:FreeMono;-inkscape-font-specification:FreeMono"
         id="path4057" />
    </g>
    <g
       style="font-size:10px;font-style:normal;font-variant:normal;font-weight:normal;font-stretch:normal;text-align:start;line-height:125%;letter-spacing:0px;word-spacing:0px;writing-mode:lr-tb;text-anchor:start;fill:#8c8479;fill-opacity:1;stroke:none;font-family:Source Sans Pro;-inkscape-font-specification:Source Sans Pro"
       id="text3964-6">
      <path
         d="m 301.56,513.57018 0,12.852 c -2e-5,1.77601 -0.67202,3.31201 -2.016,4.608 -1.32001,1.272 -2.90401,1.908 -4.752,1.908 -1.15201,0 -2.24401,-0.24 -3.276,-0.72 -1.03201,-0.504 -2.196,-1.344 -3.492,-2.52 l 0,-5.364 c 0,-0.64799 0.252,-0.97199 0.756,-0.972 0.48,1e-5 0.72,0.32401 0.72,0.972 l 0,4.68 c 1.79999,1.632 3.57599,2.448 5.328,2.448 1.46399,0 2.69999,-0.492 3.708,-1.476 1.03199,-0.98399 1.54798,-2.17199 1.548,-3.564 l 0,-12.852 -5.724,0 c -0.64801,2e-5 -0.97201,-0.25198 -0.972,-0.756 -10e-6,-0.47998 0.32399,-0.71998 0.972,-0.72 l 10.656,0 c 0.64798,2e-5 0.97198,0.24002 0.972,0.72 -2e-5,0.50402 -0.32402,0.75602 -0.972,0.756 l -3.456,0"
         style="font-size:36px;fill:#8c8479;font-family:FreeMono;-inkscape-font-specification:FreeMono"
         id="path4067" />
      <path
         d="m 310.97794,532.36218 -2.16,-18.792 -0.54,0 c -0.648,2e-5 -0.972,-0.25198 -0.972,-0.756 0,-0.47998 0.324,-0.71998 0.972,-0.72 l 5.364,0 c 0.67199,2e-5 1.00799,0.24002 1.008,0.72 -1e-5,0.50402 -0.33601,0.75602 -1.008,0.756 l -3.348,0 2.016,17.136 4.032,-14.112 2.232,0 3.924,14.112 2.052,-17.136 -3.456,0 c -0.64802,2e-5 -0.97202,-0.25198 -0.972,-0.756 -2e-5,-0.47998 0.32398,-0.71998 0.972,-0.72 l 5.4,0 c 0.64798,2e-5 0.97198,0.24002 0.972,0.72 -2e-5,0.50402 -0.32402,0.75602 -0.972,0.756 l -0.54,0 -2.232,18.792 -2.304,0 -4.032,-14.4 -4.14,14.4 -2.268,0"
         style="font-size:36px;fill:#8c8479;font-family:FreeMono;-inkscape-font-specification:FreeMono"
         id="path4069" />
      <path
         d="m 343.90387,512.74218 0,-0.648 -10.476,0 0,1.26 c 0,0.67202 -0.24,1.00802 -0.72,1.008 -0.504,2e-5 -0.756,-0.33598 -0.756,-1.008 l 0,-2.736 13.42801,0 0,2.34 -5.86801,18.684 c -0.16801,0.504 -0.40801,0.756 -0.72,0.756 -0.19201,0 -0.36001,-0.072 -0.504,-0.216 -0.144,-0.144 -0.216,-0.312 -0.216,-0.504 0,-0.12 0.024,-0.276 0.072,-0.468 l 5.76,-18.468"
         style="font-size:36px;fill:#8c8479;font-family:FreeMono;-inkscape-font-specification:FreeMono"
         id="path4071" />
      <path
         d="m 354.25781,513.35418 c 0,-0.26398 0.228,-0.63598 0.684,-1.116 0.48,-0.47998 1.236,-0.94798 2.268,-1.404 1.03199,-0.47998 2.15999,-0.71998 3.384,-0.72 1.79999,2e-5 3.29999,0.54002 4.5,1.62 1.22399,1.05602 1.83599,2.36402 1.836,3.924 -10e-6,1.39202 -0.39601,2.49602 -1.188,3.312 -0.76801,0.81602 -1.60801,1.34401 -2.52,1.584 1.41599,0.57601 2.51999,1.38001 3.312,2.412 0.79198,1.00801 1.18798,2.12401 1.188,3.348 -2e-5,1.82401 -0.74401,3.38401 -2.232,4.68 -1.46401,1.272 -3.22801,1.908 -5.292,1.908 -1.41601,0 -2.94,-0.348 -4.572,-1.044 -1.608,-0.72 -2.412,-1.38 -2.412,-1.98 0,-0.16799 0.072,-0.32399 0.216,-0.468 0.144,-0.14399 0.3,-0.21599 0.468,-0.216 0.168,1e-5 0.504,0.19201 1.008,0.576 0.504,0.36 1.224,0.732 2.16,1.116 0.93599,0.36 1.99199,0.54 3.168,0.54 1.63199,0 3.03599,-0.504 4.212,-1.512 1.19999,-1.00799 1.79999,-2.20799 1.8,-3.6 -1e-5,-1.41599 -0.63601,-2.62799 -1.908,-3.636 -1.27201,-1.03199 -2.78401,-1.54799 -4.536,-1.548 -0.64801,10e-6 -0.97201,-0.25199 -0.972,-0.756 -1e-5,-0.47998 0.32399,-0.71998 0.972,-0.72 3.76799,2e-5 5.65199,-1.31998 5.652,-3.96 -10e-6,-1.17598 -0.46801,-2.14798 -1.404,-2.916 -0.93601,-0.79198 -2.10001,-1.18798 -3.492,-1.188 -1.00801,2e-5 -1.87201,0.13202 -2.592,0.396 -0.69601,0.24002 -1.188,0.51602 -1.476,0.828 -0.264,0.31202 -0.528,0.60002 -0.792,0.864 -0.264,0.24002 -0.504,0.36002 -0.72,0.36 -0.192,2e-5 -0.36,-0.06 -0.504,-0.18 -0.144,-0.14398 -0.216,-0.31198 -0.216,-0.504"
         style="font-size:36px;fill:#8c8479;font-family:FreeMono;-inkscape-font-specification:FreeMono"
         id="path4073" />
      <path
         d="m 384.87975,526.27818 -9.756,0 0,-1.692 8.208,-13.968 3.024,0 0,14.184 1.224,0 c 0.64798,10e-6 0.97198,0.25201 0.972,0.756 -2e-5,0.48001 -0.32402,0.72001 -0.972,0.72 l -1.224,0 0,4.608 1.224,0 c 0.64798,0 0.97198,0.24 0.972,0.72 -2e-5,0.504 -0.32402,0.756 -0.972,0.756 l -5.436,0 c -0.64801,0 -0.97201,-0.252 -0.972,-0.756 -10e-6,-0.48 0.32399,-0.72 0.972,-0.72 l 2.736,0 0,-4.608 m 0,-1.476 0,-12.708 -0.864,0 -7.488,12.708 8.352,0"
         style="font-size:36px;fill:#8c8479;font-family:FreeMono;-inkscape-font-specification:FreeMono"
         id="path4075" />
    </g>
    <g
       style="font-size:10px;font-style:normal;font-variant:normal;font-weight:normal;font-stretch:normal;text-align:start;line-height:125%;letter-spacing:0px;word-spacing:0px;writing-mode:lr-tb;text-anchor:start;fill:#8c8479;fill-opacity:1;stroke:none;font-family:Source Sans Pro;-inkscape-font-specification:Source Sans Pro"
       id="text3964-6-6">
      <path
         d="m 296.556,545.33018 0,20.556 5.004,0 c 0.64798,0 0.97198,0.24 0.972,0.72 -2e-5,0.504 -0.32402,0.756 -0.972,0.756 l -11.484,0 c -0.672,0 -1.008,-0.252 -1.008,-0.756 0,-0.48 0.336,-0.72 1.008,-0.72 l 5.004,0 0,-18.612 -4.068,4.068 c -0.19201,0.19202 -0.44401,0.28802 -0.756,0.288 -0.19201,2e-5 -0.36,-0.072 -0.504,-0.216 -0.12,-0.16798 -0.18,-0.37198 -0.18,-0.612 0,-0.21598 0.132,-0.45598 0.396,-0.72 l 4.752,-4.752 1.836,0"
         style="font-size:36px;fill:#8c8479;font-family:FreeMono;-inkscape-font-specification:FreeMono"
         id="path4060" />
      <path
         d="m 317.92594,548.10218 c -1.48801,2e-5 -2.77201,0.32402 -3.852,0.972 -1.08001,0.64802 -1.87201,1.44002 -2.376,2.376 -0.48001,0.93602 -0.82801,1.78802 -1.044,2.556 -0.21601,0.76802 -0.32401,1.41601 -0.324,1.944 l 0,2.628 c -1e-5,2.44801 0.74399,4.38001 2.232,5.796 1.48799,1.392 3.52799,2.088 6.12,2.088 1.67998,0 3.39598,-0.408 5.148,-1.224 l 0,-5.4 -5.004,0 c -0.64801,1e-5 -0.97201,-0.25199 -0.972,-0.756 -1e-5,-0.47999 0.32399,-0.71999 0.972,-0.72 l 6.984,0 c 0.67198,1e-5 1.00798,0.24001 1.008,0.72 -2e-5,0.50401 -0.33602,0.75601 -1.008,0.756 l -0.504,0 0,6.228 c -2.16002,1.248 -4.40402,1.872 -6.732,1.872 -2.95201,0 -5.31601,-0.852 -7.092,-2.556 -1.75201,-1.70399 -2.628,-3.97199 -2.628,-6.804 l 0,-2.664 c 0,-2.51998 0.83999,-4.69198 2.52,-6.516 1.70399,-1.84798 3.86399,-2.77198 6.48,-2.772 2.37598,2e-5 4.36798,0.64802 5.976,1.944 l 0,-0.504 c -2e-5,-0.64798 0.25198,-0.97198 0.756,-0.972 0.47998,2e-5 0.71998,0.32402 0.72,0.972 l 0,3.276 c -2e-5,0.64802 -0.24002,0.97202 -0.72,0.972 -0.45602,2e-5 -0.69602,-0.29998 -0.72,-0.9 -0.072,-0.91198 -0.68402,-1.69198 -1.836,-2.34 -1.15202,-0.64798 -2.52002,-0.97198 -4.104,-0.972"
         style="font-size:36px;fill:#8c8479;font-family:FreeMono;-inkscape-font-specification:FreeMono"
         id="path4062" />
      <path
         d="m 332.63587,565.88618 0,-17.316 -1.944,0 c -0.648,2e-5 -0.972,-0.25198 -0.972,-0.756 0,-0.47998 0.324,-0.71998 0.972,-0.72 l 9.288,0 c 1.75199,2e-5 3.21599,0.50402 4.392,1.512 1.17599,0.98402 1.76399,2.22002 1.764,3.708 -1e-5,1.77602 -1.02001,3.21601 -3.06,4.32 3.04799,1.08001 4.57199,2.82001 4.572,5.22 -1e-5,1.51201 -0.58801,2.80801 -1.764,3.888 -1.15201,1.08 -2.54401,1.62 -4.176,1.62 l -11.016,0 c -0.648,0 -0.972,-0.252 -0.972,-0.756 0,-0.48 0.324,-0.72 0.972,-0.72 l 1.944,0 m 1.476,-9.792 5.292,0 c 1.53599,10e-6 2.79599,-0.35999 3.78,-1.08 0.98399,-0.71998 1.47599,-1.63198 1.476,-2.736 -1e-5,-1.05598 -0.44401,-1.93198 -1.332,-2.628 -0.88801,-0.71998 -1.99201,-1.07998 -3.312,-1.08 l -5.904,0 0,7.524 m 12.06,5.76 c -1e-5,-0.50399 -0.10801,-0.98399 -0.324,-1.44 -0.19201,-0.45599 -0.51601,-0.89999 -0.972,-1.332 -0.45601,-0.45599 -1.15201,-0.81599 -2.088,-1.08 -0.91201,-0.28799 -2.01601,-0.43199 -3.312,-0.432 l -5.364,0 0,8.316 7.488,0 c 1.27199,0 2.35199,-0.384 3.24,-1.152 0.88799,-0.79199 1.33199,-1.75199 1.332,-2.88"
         style="font-size:36px;fill:#8c8479;font-family:FreeMono;-inkscape-font-specification:FreeMono"
         id="path4064" />
    </g>
  </g>
</svg>
