<?xml version="1.0" encoding="UTF-8" standalone="no"?>
<!-- Created with Inkscape (http://www.inkscape.org/) -->

<svg
   xmlns:dc="http://purl.org/dc/elements/1.1/"
   xmlns:cc="http://creativecommons.org/ns#"
   xmlns:rdf="http://www.w3.org/1999/02/22-rdf-syntax-ns#"
   xmlns:svg="http://www.w3.org/2000/svg"
   xmlns="http://www.w3.org/2000/svg"
   xmlns:sodipodi="http://sodipodi.sourceforge.net/DTD/sodipodi-0.dtd"
   xmlns:inkscape="http://www.inkscape.org/namespaces/inkscape"
   width="203.46042"
   height="43.314999"
   id="svg2"
   version="1.1"
   inkscape:version="0.48.4 r9939"
   sodipodi:docname="samtectigereyelogo.svg"
   inkscape:export-filename="/home/russellbush/Pictures/Snickerdoodle_Block_Diagram/samtectigereyelogo.png"
   inkscape:export-xdpi="999.30029"
   inkscape:export-ydpi="999.30029">
  <defs
     id="defs4">
    <clipPath
       clipPathUnits="userSpaceOnUse"
       id="clipPath3182">
      <path
         inkscape:connector-curvature="0"
         d="m 41.306,770.25 0,-34.652 119.188,0 0,34.652"
         id="path3184" />
    </clipPath>
    <clipPath
       clipPathUnits="userSpaceOnUse"
       id="clipPath3146">
      <path
         inkscape:connector-curvature="0"
         d="m 41.306,770.25 0,-34.652 119.188,0 0,34.652"
         id="path3148" />
    </clipPath>
  </defs>
  <sodipodi:namedview
     id="base"
     pagecolor="#ffffff"
     bordercolor="#666666"
     borderopacity="1.0"
     inkscape:pageopacity="0.0"
     inkscape:pageshadow="2"
     inkscape:zoom="5.6568543"
     inkscape:cx="85.155931"
     inkscape:cy="37.271081"
     inkscape:document-units="px"
     inkscape:current-layer="layer1"
     showgrid="true"
     inkscape:snap-grids="false"
     inkscape:object-paths="true"
     inkscape:object-nodes="true"
     inkscape:snap-smooth-nodes="true"
     inkscape:snap-midpoints="false"
     inkscape:snap-intersection-paths="true"
     fit-margin-top="0"
     fit-margin-left="0"
     fit-margin-right="0"
     fit-margin-bottom="0"
     inkscape:snap-nodes="false"
     inkscape:window-width="2495"
     inkscape:window-height="1416"
     inkscape:window-x="65"
     inkscape:window-y="24"
     inkscape:window-maximized="1">
    <inkscape:grid
       type="xygrid"
       id="grid2985"
       empspacing="5"
       visible="true"
       enabled="true"
       snapvisiblegridlinesonly="true"
       originx="-241.365px"
       originy="-428.99688px" />
  </sodipodi:namedview>
  <metadata
     id="metadata7">
    <rdf:RDF>
      <cc:Work
         rdf:about="">
        <dc:format>image/svg+xml</dc:format>
        <dc:type
           rdf:resource="http://purl.org/dc/dcmitype/StillImage" />
        <dc:title></dc:title>
      </cc:Work>
    </rdf:RDF>
  </metadata>
  <g
     inkscape:label="Layer 1"
     inkscape:groupmode="layer"
     id="layer1"
     transform="translate(-241.365,-580.0503)">
    <g
       id="g18525"
       transform="translate(9.7325,0.14473262)">
      <g
         transform="matrix(1.25,0,0,-1.25,231.91625,585.21682)"
         id="g3120">
        <path
           id="path3122"
           style="fill:#231f20;fill-opacity:1;fill-rule:nonzero;stroke:none"
           d="M 0,0 64.342,0 64.34,-4.497 0,-4.494 0,0"
           inkscape:connector-curvature="0" />
      </g>
      <g
         transform="matrix(1.25,0,0,-1.25,231.91625,617.48557)"
         id="g3124">
        <path
           id="path3126"
           style="fill:#231f20;fill-opacity:1;fill-rule:nonzero;stroke:none"
           d="m 0,0 0,-4.464 69.054,0 L 69.055,0 0,0"
           inkscape:connector-curvature="0" />
      </g>
      <path
         id="path3128"
         style="fill:#231f20;fill-opacity:1;fill-rule:nonzero;stroke:none"
         d="m 335.865,590.83932 44.57625,0 0,-5.62187 -44.57625,0 0,5.62187 z"
         inkscape:connector-curvature="0" />
      <g
         transform="matrix(1.25,0,0,-1.25,335.87125,617.48557)"
         id="g3130">
        <path
           id="path3132"
           style="fill:#231f20;fill-opacity:1;fill-rule:nonzero;stroke:none"
           d="m 0,0 -0.003,-4.464 35.66,0 0,4.464 L 0,0"
           inkscape:connector-curvature="0" />
      </g>
      <g
         transform="matrix(1.25,0,0,-1.25,333.09375,623.06432)"
         id="g3134">
        <path
           id="path3136"
           style="fill:#f58426;fill-opacity:1;fill-rule:nonzero;stroke:none"
           d="m 0,0 -0.001,4.464 -4.435,0 0,21.32 4.472,0.04 0.007,4.454 -4.477,0 0.002,4.124 -5.502,0 -0.002,-4.124 -4.491,0 10e-4,-4.506 4.488,-0.002 0.001,-21.306 c 0,0 -0.112,-4.433 4.44,-4.433 L 0,0"
           inkscape:connector-curvature="0" />
      </g>
      <g
         transform="matrix(1.25,0,0,-1.25,333.09375,623.06432)"
         id="g3138">
        <path
           id="path3140"
           style="fill:none;stroke:#f58426;stroke-width:0.25;stroke-linecap:butt;stroke-linejoin:miter;stroke-miterlimit:10;stroke-opacity:1;stroke-dasharray:none"
           d="m 0,0 -0.001,4.464 -4.435,0 0,21.32 4.472,0.04 0.007,4.454 -4.477,0 0.002,4.124 -5.502,0 -0.002,-4.124 -4.491,0 10e-4,-4.506 4.488,-0.002 0.001,-21.306 c 0,0 -0.112,-4.433 4.44,-4.433 L 0,0 z"
           inkscape:connector-curvature="0" />
      </g>
      <g
         id="g3142"
         transform="matrix(1.25,0,0,-1.25,180,1542.7193)">
        <g
           clip-path="url(#clipPath3146)"
           id="g3144">
          <g
             transform="translate(41.473,752.533)"
             id="g3150">
            <path
               id="path3152"
               style="fill:#f58426;fill-opacity:1;fill-rule:nonzero;stroke:none"
               d="m 0,0 c 0,-0.089 -0.625,-3.57 2.945,-3.57 l 10.759,0.003 0.003,-2.379 -13.647,0 0,-3.914 16.04,0 c 0,0 3.089,-0.314 3.089,3.791 l 0,2.499 c 0,-0.089 0.357,3.749 -2.767,3.749 l -10.442,0 -0.021,2.488 13.305,0 0,3.62 -15.635,0 c 0,0 -3.629,0.317 -3.629,-3.52 0,0 -0.025,-2.059 0,-2.678"
               inkscape:connector-curvature="0" />
          </g>
          <g
             transform="translate(41.473,752.533)"
             id="g3154">
            <path
               id="path3156"
               style="fill:none;stroke:#f58426;stroke-width:0.25;stroke-linecap:butt;stroke-linejoin:miter;stroke-miterlimit:10;stroke-opacity:1;stroke-dasharray:none"
               d="m 0,0 c 0,-0.089 -0.625,-3.57 2.945,-3.57 l 10.759,0.003 0.003,-2.379 -13.647,0 0,-3.914 16.04,0 c 0,0 3.089,-0.314 3.089,3.791 l 0,2.499 c 0,-0.089 0.357,3.749 -2.767,3.749 l -10.442,0 -0.021,2.488 13.305,0 0,3.62 -15.635,0 c 0,0 -3.629,0.317 -3.629,-3.52 0,0 -0.025,-2.059 0,-2.678"
               inkscape:connector-curvature="0" />
          </g>
        </g>
      </g>
      <g
         transform="matrix(1.25,0,0,-1.25,301.84625,596.41932)"
         id="g3158">
        <path
           id="path3160"
           style="fill:#f58426;fill-opacity:1;fill-rule:nonzero;stroke:none"
           d="m 0,0 c 0,0 -0.134,1.785 2.612,1.78 l 6.136,0 c 4.238,-0.04 3.949,-3.608 3.949,-3.608 l -0.006,-12.539 -5.374,0 0,12.527 -4.78,0 0,-12.527 -5.279,0 0,12.527 -4.898,0 0,-12.527 -5.28,0 -10e-4,12.394 c 0.024,4.07 4.723,3.753 4.723,3.753 l 5.345,0 C -0.045,1.785 0,0 0,0"
           inkscape:connector-curvature="0" />
      </g>
      <g
         transform="matrix(1.25,0,0,-1.25,301.84625,596.41932)"
         id="g3162">
        <path
           id="path3164"
           style="fill:none;stroke:#f58426;stroke-width:0.25;stroke-linecap:butt;stroke-linejoin:miter;stroke-miterlimit:10;stroke-opacity:1;stroke-dasharray:none"
           d="m 0,0 c 0,0 -0.134,1.785 2.612,1.78 l 6.136,0 c 4.238,-0.04 3.949,-3.608 3.949,-3.608 l -0.006,-12.539 -5.374,0 0,12.527 -4.78,0 0,-12.527 -5.279,0 0,12.527 -4.898,0 0,-12.527 -5.28,0 -10e-4,12.394 c 0.024,4.07 4.723,3.753 4.723,3.753 l 5.345,0 C -0.045,1.785 0,0 0,0 z"
           inkscape:connector-curvature="0" />
      </g>
      <g
         transform="matrix(1.25,0,0,-1.25,353.77875,598.70557)"
         id="g3166">
        <path
           id="path3168"
           style="fill:#f58426;fill-opacity:1;fill-rule:nonzero;stroke:none"
           d="m 0,0 c 0,0 0.357,3.57 -3.124,3.57 l -12.138,0 c 0,0 -3.391,0.223 -3.391,-3.57 l 0,-8.657 c 0,0 -0.536,-3.838 3.391,-3.838 l 15.262,0 -0.008,3.871 -13.224,0 0,2.373 13.224,0.002 L 0,0 m -5.489,0 0,-2.454 -7.72,-0.045 -0.023,2.489 7.743,0.01"
           inkscape:connector-curvature="0" />
      </g>
      <g
         transform="matrix(1.25,0,0,-1.25,353.77875,598.70557)"
         id="g3170">
        <path
           id="path3172"
           style="fill:none;stroke:#f58426;stroke-width:0.25;stroke-linecap:butt;stroke-linejoin:miter;stroke-miterlimit:10;stroke-opacity:1;stroke-dasharray:none"
           d="m 0,0 c 0,0 0.357,3.57 -3.124,3.57 l -12.138,0 c 0,0 -3.391,0.223 -3.391,-3.57 l 0,-8.657 c 0,0 -0.536,-3.838 3.391,-3.838 l 15.262,0 -0.008,3.871 -13.224,0 0,2.373 13.224,0.002 L 0,0"
           inkscape:connector-curvature="0" />
        <g
           transform="translate(-5.489,0)"
           id="g3174">
          <path
             id="path3176"
             style="fill:none;stroke:#f58426;stroke-width:0.25;stroke-linecap:butt;stroke-linejoin:miter;stroke-miterlimit:10;stroke-opacity:1;stroke-dasharray:none"
             d="M 0,0 0,-2.454 -7.72,-2.499 -7.743,-0.01 0,0 z"
             inkscape:connector-curvature="0" />
        </g>
      </g>
      <g
         id="g3178"
         transform="matrix(1.25,0,0,-1.25,180,1542.7193)">
        <g
           clip-path="url(#clipPath3182)"
           id="g3180">
          <g
             transform="translate(155.069,752.204)"
             id="g3186">
            <path
               id="path3188"
               style="fill:#f58426;fill-opacity:1;fill-rule:nonzero;stroke:none"
               d="m 0,0 5.284,-0.004 0,3.048 c 0,0 0.447,3.533 -3.48,3.533 l -11.781,0 c 0,0 -3.66,0.357 -3.699,-3.778 l 0.039,-8.539 c 0,0 -0.267,-3.748 3.57,-3.748 l 12.06,-0.043 c 0,0 3.226,0.138 3.291,3.555 l 0,4.163 -5.284,0.045 0,-3.849 -7.718,0 0.001,8.613 L 0,2.996 0,0"
               inkscape:connector-curvature="0" />
          </g>
        </g>
      </g>
      <g
         transform="matrix(1.25,0,0,-1.25,373.83625,602.46432)"
         id="g3190">
        <path
           id="path3192"
           style="fill:none;stroke:#f58426;stroke-width:0.25;stroke-linecap:butt;stroke-linejoin:miter;stroke-miterlimit:10;stroke-opacity:1;stroke-dasharray:none"
           d="m 0,0 5.284,-0.004 0,3.048 c 0,0 0.447,3.533 -3.48,3.533 l -11.781,0 c 0,0 -3.66,0.357 -3.699,-3.778 l 0.039,-8.539 c 0,0 -0.267,-3.748 3.57,-3.748 l 12.06,-0.043 c 0,0 3.226,0.138 3.291,3.555 l 0,4.163 -5.284,0.045 0,-3.849 -7.718,0 0.001,8.613 L 0,2.996 0,0 z"
           inkscape:connector-curvature="0" />
      </g>
      <g
         transform="matrix(1.25,0,0,-1.25,259.17375,609.86182)"
         id="g3194">
        <path
           id="path3196"
           style="fill:#f58426;fill-opacity:1;fill-rule:nonzero;stroke:none"
           d="m 0,0 c 0,0 -0.357,-3.57 3.124,-3.57 l 15.529,0 0,12.227 c 0,0 0.536,3.838 -3.391,3.838 l -15.351,0 0,-3.57 13.298,0 L 13.232,6.251 2.856,6.247 C -0.625,6.247 0.02,2.393 0,2.41 L 0,0 m 5.489,0 0,2.454 7.743,-0.004 0,-2.44 L 5.489,0"
           inkscape:connector-curvature="0" />
      </g>
      <g
         transform="matrix(1.25,0,0,-1.25,259.17375,609.86182)"
         id="g3198">
        <path
           id="path3200"
           style="fill:none;stroke:#f58426;stroke-width:0.25;stroke-linecap:butt;stroke-linejoin:miter;stroke-miterlimit:10;stroke-opacity:1;stroke-dasharray:none"
           d="m 0,0 c 0,0 -0.357,-3.57 3.124,-3.57 l 15.529,0 0,12.227 c 0,0 0.536,3.838 -3.391,3.838 l -15.351,0 0,-3.57 13.298,0 L 13.232,6.251 2.856,6.247 C -0.625,6.247 0.02,2.393 0,2.41 L 0,0"
           inkscape:connector-curvature="0" />
        <g
           transform="translate(5.489,0)"
           id="g3202">
          <path
             id="path3204"
             style="fill:none;stroke:#f58426;stroke-width:0.25;stroke-linecap:butt;stroke-linejoin:miter;stroke-miterlimit:10;stroke-opacity:1;stroke-dasharray:none"
             d="M 0,0 0,2.454 7.743,2.45 7.743,0.01 0,0 z"
             inkscape:connector-curvature="0" />
        </g>
      </g>
    </g>
    <g
       id="g18804"
       transform="translate(0.4375,0.45593262)">
      <path
         id="path16754"
         style="fill:#ffffff;fill-opacity:1;fill-rule:nonzero;stroke:none"
         d="m 396,622.29455 39.86886,0 0,-36.93237 -39.86886,0 0,36.93237 z"
         inkscape:connector-curvature="0" />
      <path
         inkscape:connector-curvature="0"
         id="path16756"
         d="m 395.5625,584.90625 0,0.46875 0,36.90625 0,0.46875 0.4375,0 39.875,0 0.4375,0 0,-0.46875 0,-36.90625 0,-0.46875 -0.4375,0 -39.875,0 -0.4375,0 z m 0.875,0.90625 38.96875,0 0,36.03125 -38.96875,0 0,-36.03125 z"
         style="font-size:medium;font-style:normal;font-variant:normal;font-weight:normal;font-stretch:normal;text-indent:0;text-align:start;text-decoration:none;line-height:normal;letter-spacing:normal;word-spacing:normal;text-transform:none;direction:ltr;block-progression:tb;writing-mode:lr-tb;text-anchor:start;baseline-shift:baseline;color:#000000;fill:#231f20;fill-opacity:1;stroke:none;stroke-width:0.90399998;marker:none;visibility:visible;display:inline;overflow:visible;enable-background:accumulate;font-family:Sans;-inkscape-font-specification:Sans" />
      <path
         id="path16758"
         style="fill:#231f20;fill-opacity:1;fill-rule:nonzero;stroke:none"
         d="m 396,610.77432 39.86886,0 0,-25.41214 -39.86886,0 0,25.41214 z"
         inkscape:connector-curvature="0" />
      <g
         transform="matrix(0.89938554,0,0,-0.89938554,406.91224,611.64762)"
         id="g16760">
        <path
           id="path16762"
           style="fill:#fab177;fill-opacity:1;fill-rule:nonzero;stroke:none"
           d="m 0,0 9.817,0 c 6.442,0 12.881,6.111 12.881,14.207 l 0,8.358 -12.97,0 c -8.466,0 -13.035,-7.296 -13.035,-15.252 l 0,-3.552 C -3.307,3.761 -3.243,0 0,0"
           inkscape:connector-curvature="0" />
      </g>
      <g
         transform="matrix(0.89938554,0,0,-0.89938554,406.91224,611.64762)"
         id="g16764">
        <path
           id="path16766"
           style="fill:none;stroke:#fab177;stroke-width:0.33500001;stroke-linecap:butt;stroke-linejoin:miter;stroke-miterlimit:4;stroke-opacity:1;stroke-dasharray:none"
           d="m 0,0 9.817,0 c 6.442,0 12.881,6.111 12.881,14.207 l 0,8.358 -12.97,0 c -8.466,0 -13.035,-7.296 -13.035,-15.252 l 0,-3.552 C -3.307,3.761 -3.243,0 0,0 z"
           inkscape:connector-curvature="0" />
      </g>
      <g
         transform="matrix(0.89938554,0,0,-0.89938554,415.93398,610.17443)"
         id="g16768">
        <path
           id="path16770"
           style="fill:#231f20;fill-opacity:1;fill-rule:nonzero;stroke:none"
           d="m 0,0 c 5.475,0 9.917,4.441 9.917,9.916 0,5.477 -4.442,9.917 -9.917,9.917 -5.476,0 -9.916,-4.44 -9.916,-9.917 C -9.916,4.441 -5.476,0 0,0"
           inkscape:connector-curvature="0" />
      </g>
      <g
         transform="matrix(0.89938554,0,0,-0.89938554,415.93398,610.17443)"
         id="g16772">
        <path
           id="path16774"
           style="fill:none;stroke:#231f20;stroke-width:0.33500001;stroke-linecap:butt;stroke-linejoin:miter;stroke-miterlimit:4;stroke-opacity:1;stroke-dasharray:none"
           d="m 0,0 c 5.475,0 9.917,4.441 9.917,9.916 0,5.477 -4.442,9.917 -9.917,9.917 -5.476,0 -9.916,-4.44 -9.916,-9.917 C -9.916,4.441 -5.476,0 0,0 z"
           inkscape:connector-curvature="0" />
      </g>
      <path
         id="path16776"
         style="fill:#ffffff;fill-opacity:1;fill-rule:nonzero;stroke:none"
         d="m 413.87349,610.84267 4.31795,0 0,-7.67805 -4.31795,0 0,7.67805 z"
         inkscape:connector-curvature="0" />
      <g
         transform="matrix(0.89938554,0,0,-0.89938554,425.35684,598.56966)"
         id="g16778">
        <path
           id="path16780"
           style="fill:#ffffff;fill-opacity:1;fill-rule:nonzero;stroke:none"
           d="m 0,0 -7.415,-4.231 -2.378,4.17 7.414,4.231"
           inkscape:connector-curvature="0" />
      </g>
      <g
         transform="matrix(0.89938554,0,0,-0.89938554,406.71168,598.45634)"
         id="g16782">
        <path
           id="path16784"
           style="fill:#ffffff;fill-opacity:1;fill-rule:nonzero;stroke:none"
           d="M 0,0 7.415,-4.232 9.794,-0.062 2.38,4.17"
           inkscape:connector-curvature="0" />
      </g>
      <g
         transform="matrix(0.89938554,0,0,-0.89938554,397.88961,609.65189)"
         id="g16786">
        <path
           id="path16788"
           style="fill:#ffffff;fill-opacity:1;fill-rule:nonzero;stroke:none"
           d="m 0,0 0,14.47 11.797,0 0,-3.377 -7.054,0 0,-2.069 5.969,0 0,-3.377 -5.969,0 0,-2.27 7.335,0 0,-3.377"
           inkscape:connector-curvature="0" />
      </g>
      <g
         transform="matrix(0.89938554,0,0,-0.89938554,423.52839,609.65189)"
         id="g16790">
        <path
           id="path16792"
           style="fill:#ffffff;fill-opacity:1;fill-rule:nonzero;stroke:none"
           d="m 0,0 0,14.47 11.796,0 0,-3.377 -7.053,0 0,-2.069 5.97,0 0,-3.377 -5.97,0 0,-2.27 7.335,0 0,-3.377"
           inkscape:connector-curvature="0" />
      </g>
      <g
         transform="matrix(0.89938554,0,0,-0.89938554,397.16021,586.66809)"
         id="g16794">
        <path
           id="path16796"
           style="fill:#ffffff;fill-opacity:1;fill-rule:nonzero;stroke:none"
           d="m 0,0 8.62,0 0,-2.469 -2.768,0 0,-6.934 -3.083,0 0,6.934 -2.769,0"
           inkscape:connector-curvature="0" />
      </g>
      <path
         id="path16798"
         style="fill:#ffffff;fill-opacity:1;fill-rule:nonzero;stroke:none"
         d="m 405.69897,595.12501 2.77191,0 0,-8.45719 -2.77191,0 0,8.45719 z"
         inkscape:connector-curvature="0" />
      <g
         transform="matrix(0.89938554,0,0,-0.89938554,417.6671,595.1484)"
         id="g16800">
        <path
           id="path16802"
           style="fill:#ffffff;fill-opacity:1;fill-rule:nonzero;stroke:none"
           d="m 0,0 -1.985,0 -0.118,0.928 c -0.508,-0.601 -1.357,-1.15 -2.833,-1.15 -2.404,0 -4.558,1.554 -4.558,4.832 0,3.004 1.88,5.068 4.924,5.068 2.259,0 4.075,-1.175 4.453,-3.487 l -2.925,0 c -0.223,0.77 -0.784,1.188 -1.581,1.188 -1.214,0 -1.79,-1.097 -1.79,-2.756 0,-1.332 0.419,-2.546 1.973,-2.546 0.628,0 1.424,0.431 1.58,1.084 l -1.358,0 0,2.037 4.218,0"
           inkscape:connector-curvature="0" />
      </g>
      <g
         transform="matrix(0.89938554,0,0,-0.89938554,418.64023,595.12501)"
         id="g16804">
        <path
           id="path16806"
           style="fill:#ffffff;fill-opacity:1;fill-rule:nonzero;stroke:none"
           d="m 0,0 0,9.403 7.665,0 0,-2.193 -4.584,0 0,-1.346 3.879,0 0,-2.194 -3.879,0 0,-1.476 4.767,0 0,-2.194"
           inkscape:connector-curvature="0" />
      </g>
      <g
         transform="matrix(0.89938554,0,0,-0.89938554,429.24579,590.32139)"
         id="g16808">
        <path
           id="path16810"
           style="fill:#ffffff;fill-opacity:1;fill-rule:nonzero;stroke:none"
           d="m 0,0 1.215,0 c 0.952,0 1.463,0.235 1.463,0.889 0,0.666 -0.524,0.979 -1.241,0.979 L 0,1.868 0,0 z m 0,-2.064 0,-3.277 -3.083,0 0,9.403 4.44,0 c 3.135,0 4.167,-0.849 4.167,-2.677 0,-1.084 -0.483,-1.999 -1.579,-2.299 0.992,-0.366 1.592,-0.601 1.592,-2.494 0,-1.228 -0.038,-1.647 0.326,-1.647 l 0,-0.286 -3.122,0 c -0.077,0.208 -0.155,0.81 -0.155,1.645 0,1.227 -0.208,1.632 -1.645,1.632"
           inkscape:connector-curvature="0" />
      </g>
      <text
         id="text16812"
         x="437.34476"
         y="590.82611"
         style="font-size:10.79262638px">
        <tspan
           id="tspan16814"
           y="590.82611"
           x="437.34476"
           style="font-size:7.50869989px;font-variant:normal;font-weight:normal;writing-mode:lr-tb;fill:#231f20;fill-opacity:1;fill-rule:nonzero;stroke:none;font-family:Helvetica;-inkscape-font-specification:Helvetica">™</tspan>
      </text>
      <g
         transform="matrix(0.71950843,0,0,0.71950843,43.52721,166.2128)"
         id="g18517">
        <path
           style="fill:#f58426;fill-opacity:1;stroke:none"
           d="m 495.88231,624.04566 0.004,-1.17982 c -0.0157,-0.16508 -0.006,-0.33654 -0.18151,-0.46167 -0.18847,-0.0792 -0.38667,-0.13052 -0.64713,-0.004 -0.19249,0.074 -0.30585,0.23938 -0.36302,0.46956 -0.0175,0.20739 -0.0335,0.41541 0,0.64319 0.0135,0.0812 0.0397,0.14969 0.0947,0.1894 l 0.0868,0.18546 c 0.5895,0.70386 0.8499,0.60557 1.27453,0.90756 0.90892,0.40379 1.50696,0.84998 2.20576,1.28242 0.37869,0.30214 0.72252,0.66431 0.91545,1.28636 0.0341,0.12861 0.0631,0.30782 0.0868,0.54059 0.0289,0.19638 0.0579,0.51337 0.0868,0.80891 l -0.004,0.54848 -0.0789,0.73 -0.0986,0.37091 c -0.0478,0.17791 -0.11308,0.32101 -0.18151,0.45773 -0.13259,0.20805 -0.29898,0.326 -0.46167,0.45378 -0.30221,0.20401 -0.61072,0.35131 -0.92334,0.46167 -0.40589,0.16695 -0.78553,0.20268 -1.17194,0.27227 -0.67666,0.0672 -1.3418,0.0307 -2.00847,0.008 -0.35896,-0.0478 -0.66198,-0.1143 -0.92728,-0.19335 -0.36627,-0.14053 -0.69849,-0.29242 -1.00227,-0.45378 -0.35056,-0.25008 -0.49129,-0.4477 -0.63923,-0.64713 -0.28021,-0.5106 -0.31088,-0.83676 -0.35908,-1.17588 -0.0803,-0.6064 -0.11212,-1.18583 -0.0987,-1.74015 l 3.29484,0.008 0,1.82301 c 0.019,0.14037 0.0519,0.22198 0.1815,0.37091 0.0132,0.0303 0.0408,0.0605 0.0829,0.0908 0.41901,0.12187 0.49707,0.0339 0.66291,0 0.0881,-0.0303 0.13389,-0.0605 0.18152,-0.0908 0.0844,-0.0994 0.12415,-0.15721 0.18151,-0.36302 0.0509,-0.72347 5.4e-4,-0.70485 -0.004,-1.02199 -0.0278,-0.11902 -0.0605,-0.21322 -0.0987,-0.28016 -0.0329,-0.1462 -0.094,-0.2689 -0.1894,-0.36303 -0.25283,-0.20285 -0.51851,-0.38964 -0.81286,-0.54058 l -1.47182,-0.82865 -1.0141,-0.63923 c -0.23933,-0.19245 -0.4643,-0.39516 -0.63134,-0.63924 -0.26062,-0.4141 -0.30864,-0.71126 -0.36697,-1.0141 -0.0795,-0.57216 -0.0423,-1.14431 0.0118,-1.71647 0.0399,-0.27901 0.09,-0.54149 0.18152,-0.73788 0.10082,-0.18614 0.18922,-0.39092 0.35134,-0.48511 0.079,-0.079 0.19714,-0.20004 0.28789,-0.24883 0.1761,-0.14175 0.30564,-0.19038 0.45378,-0.27622 0.1819,-0.0846 0.32001,-0.12534 0.47351,-0.18151 l 0.7221,-0.18151 0.63924,-0.0908 c 0.55111,-0.0534 0.96191,-0.0266 1.37318,0 l 1.08512,0.18152 0.55243,0.1894 0.45772,0.17757 0.27227,0.18151 0.36697,0.37091 0.17757,0.27227 0.0908,0.28016 0.0987,0.44983 0.004,1.53891 z"
           id="path17737"
           inkscape:connector-curvature="0"
           sodipodi:nodetypes="cccccccccccccccccccccccccccccccccccccccccccccccccccccccccccc" />
        <path
           style="fill:#f58426;fill-opacity:1;stroke:none"
           d="m 499.72266,620.58093 3.1875,0.004 0.88281,4.34375 0.96484,-4.35156 3.19141,0.004 -2.46485,7.125 -0.0547,4.11719 -3.28516,-0.004 0.004,-4.15234 z"
           id="path17739"
           inkscape:connector-curvature="0" />
        <path
           style="fill:#f58426;fill-opacity:1;stroke:none"
           d="m 518.70312,622.86609 -2.0625,-0.008 0.004,-2.23047 7.63281,-0.004 -0.008,2.23828 -2.05078,0.004 0,8.96094 -3.52734,-0.004 z"
           id="path17741"
           inkscape:connector-curvature="0" />
        <path
           style="fill:#f58426;fill-opacity:1;stroke:none"
           d="m 531.58594,622.86218 0.008,-2.28515 -5.85938,0.004 0.004,11.24219 6.08594,-0.004 -0.008,-2.23828 -2.5586,0.004 0,-2.46875 2.19531,-0.004 -0.004,-2.10156 -2.1875,0.008 0.004,-2.15234 z"
           id="path17743"
           inkscape:connector-curvature="0" />
        <path
           style="fill:#f58426;fill-opacity:1;stroke:none"
           d="m 532.78125,631.81921 3.0625,0.004 0,-7.3125 1.28125,7.3125 2.19531,-0.004 1.19141,-7.41406 0.004,7.41797 3.10156,0.004 -0.004,-11.19922 -4.5625,0.004 -0.8164,5.07032 -0.92579,-5.07813 -4.53125,0.008 z"
           id="path17745"
           inkscape:connector-curvature="0" />
        <path
           sodipodi:nodetypes="cccccccccccccccccccccccccccccccccccccccccccccccccccccccccccc"
           inkscape:connector-curvature="0"
           id="path18515"
           d="m 512.6245,624.05347 0.004,-1.17982 c -0.0157,-0.16508 -0.006,-0.33654 -0.18151,-0.46167 -0.18847,-0.0792 -0.38667,-0.13052 -0.64713,-0.004 -0.19249,0.074 -0.30585,0.23938 -0.36302,0.46956 -0.0175,0.20739 -0.0335,0.41541 0,0.64319 0.0135,0.0812 0.0397,0.14969 0.0947,0.1894 l 0.0868,0.18546 c 0.5895,0.70386 0.8499,0.60557 1.27453,0.90756 0.90892,0.40379 1.50696,0.84998 2.20576,1.28242 0.37869,0.30214 0.72252,0.66431 0.91545,1.28636 0.0341,0.12861 0.0631,0.30782 0.0868,0.54059 0.0289,0.19638 0.0579,0.51337 0.0868,0.80891 l -0.004,0.54848 -0.0789,0.73 -0.0986,0.37091 c -0.0478,0.17791 -0.11308,0.32101 -0.18151,0.45773 -0.13259,0.20805 -0.29898,0.326 -0.46167,0.45378 -0.30221,0.20401 -0.61072,0.35131 -0.92334,0.46167 -0.40589,0.16695 -0.78553,0.20268 -1.17194,0.27227 -0.67666,0.0672 -1.3418,0.0307 -2.00847,0.008 -0.35896,-0.0478 -0.66198,-0.1143 -0.92728,-0.19335 -0.36627,-0.14053 -0.69849,-0.29242 -1.00227,-0.45378 -0.35056,-0.25008 -0.49129,-0.4477 -0.63923,-0.64713 -0.28021,-0.5106 -0.31088,-0.83676 -0.35908,-1.17588 -0.0803,-0.6064 -0.11212,-1.18583 -0.0987,-1.74015 l 3.29484,0.008 0,1.82301 c 0.0297,0.14801 0.0743,0.2339 0.1815,0.37091 0.0166,0.0266 0.0249,0.0504 0.0829,0.0908 0.27785,0.0839 0.49707,0.0339 0.66291,0 0.0881,-0.0303 0.13389,-0.0605 0.18152,-0.0908 0.0844,-0.0994 0.12415,-0.15721 0.18151,-0.36302 0.0509,-0.72347 5.4e-4,-0.70485 -0.004,-1.02199 -0.0278,-0.11902 -0.0605,-0.21322 -0.0987,-0.28016 -0.0329,-0.1462 -0.094,-0.2689 -0.1894,-0.36303 -0.25283,-0.20285 -0.51851,-0.38964 -0.81286,-0.54058 l -1.47182,-0.82865 -1.0141,-0.63923 c -0.23933,-0.19245 -0.4643,-0.39516 -0.63134,-0.63924 -0.26062,-0.4141 -0.30864,-0.71126 -0.36697,-1.0141 -0.0795,-0.57216 -0.0423,-1.14431 0.0118,-1.71647 0.0399,-0.27901 0.09,-0.54149 0.18152,-0.73788 0.10082,-0.18614 0.18922,-0.39092 0.35134,-0.48511 0.079,-0.079 0.19714,-0.20004 0.28789,-0.24883 0.1761,-0.14175 0.30564,-0.19038 0.45378,-0.27622 0.1819,-0.0846 0.32001,-0.12534 0.47351,-0.18151 l 0.7221,-0.18151 0.63924,-0.0908 c 0.32011,-0.0229 0.68923,-0.0377 1.37318,0 l 1.08512,0.18152 0.55243,0.1894 0.45772,0.17757 0.27227,0.18151 0.36697,0.37091 0.17757,0.27227 0.0908,0.28016 0.0987,0.44983 0.004,1.53891 z"
           style="fill:#f58426;fill-opacity:1;stroke:none" />
      </g>
    </g>
  </g>
</svg>
