<?xml version="1.0" standalone="no"?>
<!DOCTYPE svg PUBLIC "-//W3C//DTD SVG 1.1//EN" "http://www.w3.org/Graphics/SVG/1.1/DTD/svg11.dtd">
<svg width="100%" height="100%" viewBox="0 0 1000 655" version="1.1" xmlns="http://www.w3.org/2000/svg" xmlns:xlink="http://www.w3.org/1999/xlink" xml:space="preserve" style="fill-rule:evenodd;clip-rule:evenodd;stroke-linejoin:round;stroke-miterlimit:1.41421;">
    <g id="Layer1" transform="matrix(1,0,0,1,-70,-2500)">
        <g transform="matrix(3.26639,-1.23473e-16,-3.8682e-15,0.759968,70,2665)">
            <rect x="0" y="0" width="306.148" height="210.535" style="fill:rgb(149,191,230);"/>
        </g>
        <g transform="matrix(3.26639,-1.07364e-16,-3.93357e-15,0.759968,70,2500)">
            <rect x="0" y="0" width="306.148" height="210.535" style="fill:rgb(225,225,225);"/>
        </g>
        <g transform="matrix(3.26639,-1.03794e-16,-3.94837e-15,0.759968,70,2830)">
            <rect x="0" y="0" width="306.148" height="210.535" style="fill:rgb(0,118,187);"/>
        </g>
        <g transform="matrix(3.26639,-3.61859e-17,-4.25254e-15,0.759968,70,2995)">
            <rect x="0" y="0" width="306.148" height="210.535" style="fill:rgb(0,41,57);"/>
        </g>
        <g transform="matrix(1,0,0,1,21.8789,2524)">
            <path d="M102.542,62.38L102.542,55.643C108.761,54.672 112,49.943 112,45.149C112,39.514 108.437,36.34 102.413,33.554C96.712,31.028 94.251,29.149 94.251,25.068C94.251,21.959 96.453,18.267 101.959,18.267C105.717,18.267 108.243,19.692 109.409,20.534L110.769,18.137C109.085,16.971 106.623,15.87 102.996,15.74L102.996,9.068L100.34,9.068L100.34,15.805C95.028,16.582 91.336,20.404 91.336,25.587C91.336,30.834 95.028,33.684 101.441,36.469C106.235,38.607 109.02,41.198 109.02,45.409C109.02,49.813 105.587,53.182 100.34,53.182C97.166,53.182 94.057,52.016 92.048,50.396L90.688,52.793C92.891,54.542 96.518,55.708 99.887,55.708L99.887,62.38L102.542,62.38Z" style="fill:black;fill-rule:nonzero;"/>
            <path d="M143.858,93.939L149.08,93.939L149.08,21.717L144.191,21.717L130.525,29.828L131.858,34.05L143.636,27.161L143.858,27.161L143.858,93.939Z" style="fill:black;fill-rule:nonzero;"/>
            <path d="M198.08,93.939L203.302,93.939L203.302,21.717L198.413,21.717L184.747,29.828L186.08,34.05L197.858,27.161L198.08,27.161L198.08,93.939Z" style="fill:black;fill-rule:nonzero;"/>
            <path d="M252.525,95.161C266.747,95.161 276.08,82.717 276.08,56.828C276.08,31.939 266.636,20.495 253.969,20.495C241.858,20.495 230.302,31.939 230.302,58.161C230.636,84.05 241.08,95.161 252.413,95.161L252.525,95.161ZM252.969,90.717C242.413,90.717 235.525,77.495 235.858,57.383C235.858,38.272 242.747,24.939 253.191,24.939C265.413,24.939 270.525,38.495 270.525,57.383C270.525,77.05 265.08,90.717 253.08,90.717L252.969,90.717Z" style="fill:black;fill-rule:nonzero;"/>
            <path d="M294.525,14.939L289.191,14.939L289.191,93.939L294.525,93.939L294.525,71.717L299.969,65.939L321.747,93.939L328.191,93.939L303.636,62.717L325.191,40.606L318.747,40.606L299.858,60.383C298.191,62.161 296.08,64.606 294.747,66.272L294.525,66.272L294.525,14.939Z" style="fill:black;fill-rule:nonzero;"/>
            <path d="M102.542,229.047L102.542,222.31C108.761,221.338 112,216.61 112,211.816C112,206.18 108.437,203.006 102.413,200.221C96.712,197.695 94.251,195.816 94.251,191.735C94.251,188.626 96.453,184.933 101.959,184.933C105.717,184.933 108.243,186.358 109.409,187.201L110.769,184.804C109.085,183.638 106.623,182.537 102.996,182.407L102.996,175.735L100.34,175.735L100.34,182.472C95.028,183.249 91.336,187.071 91.336,192.253C91.336,197.5 95.028,200.35 101.441,203.136C106.235,205.274 109.02,207.865 109.02,212.075C109.02,216.48 105.587,219.849 100.34,219.849C97.166,219.849 94.057,218.683 92.048,217.063L90.688,219.46C92.891,221.209 96.518,222.375 99.887,222.375L99.887,229.047L102.542,229.047Z" style="fill:black;fill-rule:nonzero;"/>
            <path d="M165.747,260.606L165.747,256.161L130.191,256.161L130.191,255.939L135.302,250.606C153.413,232.717 163.747,221.272 163.747,207.05C163.747,198.495 158.636,187.161 143.636,187.161C136.191,187.161 129.858,190.161 125.191,194.383L127.302,198.05C130.413,195.383 135.747,191.828 142.636,191.828C154.858,191.828 158.302,199.939 158.302,208.161C158.302,220.606 149.525,230.828 129.413,250.495L122.747,257.383L122.747,260.606L165.747,260.606Z" style="fill:black;fill-rule:nonzero;"/>
            <path d="M216.969,188.383L185.636,188.383L180.969,221.05C183.525,220.606 186.969,220.272 191.302,220.272C205.636,220.272 212.08,228.161 212.191,238.606C212.302,249.495 203.969,257.272 193.525,257.272C186.858,257.272 181.413,254.828 178.636,252.939L176.525,257.161C179.636,259.495 185.747,261.828 193.191,261.828C206.525,261.828 217.525,252.161 217.525,237.606C217.525,228.05 211.969,221.606 206.302,218.828C202.08,216.717 197.636,215.717 192.858,215.717C189.636,215.717 187.858,215.939 186.191,216.272L189.747,193.05L216.969,193.05L216.969,188.383Z" style="fill:black;fill-rule:nonzero;"/>
            <path d="M252.525,261.828C266.747,261.828 276.08,249.383 276.08,223.495C276.08,198.606 266.636,187.161 253.969,187.161C241.858,187.161 230.302,198.606 230.302,224.828C230.636,250.717 241.08,261.828 252.413,261.828L252.525,261.828ZM252.969,257.383C242.413,257.383 235.525,244.161 235.858,224.05C235.858,204.939 242.747,191.606 253.191,191.606C265.413,191.606 270.525,205.161 270.525,224.05C270.525,243.717 265.08,257.383 253.08,257.383L252.969,257.383Z" style="fill:black;fill-rule:nonzero;"/>
            <path d="M294.525,181.606L289.191,181.606L289.191,260.606L294.525,260.606L294.525,238.383L299.969,232.606L321.747,260.606L328.191,260.606L303.636,229.383L325.191,207.272L318.747,207.272L299.858,227.05C298.191,228.828 296.08,231.272 294.747,232.939L294.525,232.939L294.525,181.606Z" style="fill:black;fill-rule:nonzero;"/>
            <path d="M626.246,260.606L631.58,260.606L631.58,190.161L656.024,190.161L656.024,185.717L601.802,185.717L601.802,190.161L626.246,190.161L626.246,260.606Z" style="fill:black;fill-rule:nonzero;"/>
            <path d="M663.691,260.606C666.691,260.717 671.024,261.161 676.691,261.161C687.357,261.161 695.469,259.05 700.469,254.05C703.802,250.495 706.024,245.828 706.024,239.717C706.024,227.495 696.469,222.05 690.135,220.606L690.135,220.272C697.58,217.717 703.024,211.272 703.024,203.606C703.024,198.383 701.469,194.383 698.357,191.383C694.246,187.161 688.135,185.161 678.802,185.161C673.246,185.161 667.913,185.828 663.691,186.828L663.691,260.606ZM669.024,190.383C670.691,189.939 673.58,189.606 678.469,189.606C689.58,189.606 697.58,193.383 697.58,203.939C697.58,212.161 690.802,218.606 679.913,218.606L669.024,218.606L669.024,190.383ZM669.024,222.939L678.469,222.939C690.357,222.939 700.469,228.05 700.469,239.828C700.469,252.606 689.691,256.717 678.246,256.717C674.246,256.717 671.246,256.606 669.024,256.161L669.024,222.939Z" style="fill:black;fill-rule:nonzero;"/>
            <path d="M758.469,234.383L767.913,260.606L773.357,260.606L746.357,185.717L741.246,185.717L714.135,260.606L719.58,260.606L728.802,234.383L758.469,234.383ZM730.469,229.939L739.691,204.717C741.246,199.939 742.469,196.05 743.58,191.717L743.802,191.717C744.913,195.939 745.913,199.717 747.691,204.939L756.802,229.939L730.469,229.939Z" style="fill:black;fill-rule:nonzero;"/>
            <path d="M102.542,395.714L102.542,388.977C108.761,388.005 112,383.276 112,378.483C112,372.847 108.437,369.673 102.413,366.888C96.712,364.361 94.251,362.483 94.251,358.402C94.251,355.292 96.453,351.6 101.959,351.6C105.717,351.6 108.243,353.025 109.409,353.867L110.769,351.47C109.085,350.304 106.623,349.203 102.996,349.074L102.996,342.402L100.34,342.402L100.34,349.138C95.028,349.916 91.336,353.738 91.336,358.92C91.336,364.167 95.028,367.017 101.441,369.803C106.235,371.94 109.02,374.531 109.02,378.742C109.02,383.147 105.587,386.515 100.34,386.515C97.166,386.515 94.057,385.349 92.048,383.73L90.688,386.127C92.891,387.876 96.518,389.042 99.887,389.042L99.887,395.714L102.542,395.714Z" style="fill:white;fill-rule:nonzero;"/>
            <path d="M162.747,355.05L131.413,355.05L126.747,387.717C129.302,387.272 132.747,386.939 137.08,386.939C151.413,386.939 157.858,394.828 157.969,405.272C158.08,416.161 149.747,423.939 139.302,423.939C132.636,423.939 127.191,421.495 124.413,419.606L122.302,423.828C125.413,426.161 131.525,428.495 138.969,428.495C152.302,428.495 163.302,418.828 163.302,404.272C163.302,394.717 157.747,388.272 152.08,385.495C147.858,383.383 143.413,382.383 138.636,382.383C135.413,382.383 133.636,382.606 131.969,382.939L135.525,359.717L162.747,359.717L162.747,355.05Z" style="fill:white;fill-rule:nonzero;"/>
            <path d="M198.302,428.495C212.525,428.495 221.858,416.05 221.858,390.161C221.858,365.272 212.413,353.828 199.747,353.828C187.636,353.828 176.08,365.272 176.08,391.495C176.413,417.383 186.858,428.495 198.191,428.495L198.302,428.495ZM198.747,424.05C188.191,424.05 181.302,410.828 181.636,390.717C181.636,371.606 188.525,358.272 198.969,358.272C211.191,358.272 216.302,371.828 216.302,390.717C216.302,410.383 210.858,424.05 198.858,424.05L198.747,424.05Z" style="fill:white;fill-rule:nonzero;"/>
            <path d="M252.525,428.495C266.747,428.495 276.08,416.05 276.08,390.161C276.08,365.272 266.636,353.828 253.969,353.828C241.858,353.828 230.302,365.272 230.302,391.495C230.636,417.383 241.08,428.495 252.413,428.495L252.525,428.495ZM252.969,424.05C242.413,424.05 235.525,410.828 235.858,390.717C235.858,371.606 242.747,358.272 253.191,358.272C265.413,358.272 270.525,371.828 270.525,390.717C270.525,410.383 265.08,424.05 253.08,424.05L252.969,424.05Z" style="fill:white;fill-rule:nonzero;"/>
            <path d="M294.525,348.272L289.191,348.272L289.191,427.272L294.525,427.272L294.525,405.05L299.969,399.272L321.747,427.272L328.191,427.272L303.636,396.05L325.191,373.939L318.747,373.939L299.858,393.717C298.191,395.495 296.08,397.939 294.747,399.606L294.525,399.606L294.525,348.272Z" style="fill:white;fill-rule:nonzero;"/>
            <path d="M626.246,427.272L631.58,427.272L631.58,356.828L656.024,356.828L656.024,352.383L601.802,352.383L601.802,356.828L626.246,356.828L626.246,427.272Z" style="fill:white;fill-rule:nonzero;"/>
            <path d="M663.691,427.272C666.691,427.383 671.024,427.828 676.691,427.828C687.357,427.828 695.469,425.717 700.469,420.717C703.802,417.161 706.024,412.495 706.024,406.383C706.024,394.161 696.469,388.717 690.135,387.272L690.135,386.939C697.58,384.383 703.024,377.939 703.024,370.272C703.024,365.05 701.469,361.05 698.357,358.05C694.246,353.828 688.135,351.828 678.802,351.828C673.246,351.828 667.913,352.495 663.691,353.495L663.691,427.272ZM669.024,357.05C670.691,356.606 673.58,356.272 678.469,356.272C689.58,356.272 697.58,360.05 697.58,370.606C697.58,378.828 690.802,385.272 679.913,385.272L669.024,385.272L669.024,357.05ZM669.024,389.606L678.469,389.606C690.357,389.606 700.469,394.717 700.469,406.495C700.469,419.272 689.691,423.383 678.246,423.383C674.246,423.383 671.246,423.272 669.024,422.828L669.024,389.606Z" style="fill:white;fill-rule:nonzero;"/>
            <path d="M758.469,401.05L767.913,427.272L773.357,427.272L746.357,352.383L741.246,352.383L714.135,427.272L719.58,427.272L728.802,401.05L758.469,401.05ZM730.469,396.606L739.691,371.383C741.246,366.606 742.469,362.717 743.58,358.383L743.802,358.383C744.913,362.606 745.913,366.383 747.691,371.606L756.802,396.606L730.469,396.606Z" style="fill:white;fill-rule:nonzero;"/>
            <path d="M102.542,562.38L102.542,555.643C108.761,554.672 112,549.943 112,545.149C112,539.514 108.437,536.34 102.413,533.554C96.712,531.028 94.251,529.149 94.251,525.068C94.251,521.959 96.453,518.267 101.959,518.267C105.717,518.267 108.243,519.692 109.409,520.534L110.769,518.137C109.085,516.971 106.623,515.87 102.996,515.74L102.996,509.068L100.34,509.068L100.34,515.805C95.028,516.582 91.336,520.404 91.336,525.587C91.336,530.834 95.028,533.684 101.441,536.469C106.235,538.607 109.02,541.198 109.02,545.409C109.02,549.813 105.587,553.182 100.34,553.182C97.166,553.182 94.057,552.016 92.048,550.396L90.688,552.793C92.891,554.542 96.518,555.708 99.887,555.708L99.887,562.38L102.542,562.38Z" style="fill:white;fill-rule:nonzero;"/>
            <path d="M143.858,593.939L149.08,593.939L149.08,521.717L144.191,521.717L130.525,529.828L131.858,534.05L143.636,527.161L143.858,527.161L143.858,593.939Z" style="fill:white;fill-rule:nonzero;"/>
            <path d="M246.302,593.939L251.525,593.939L246.525,519.05L240.191,519.05L223.413,562.272C219.636,572.383 216.969,579.606 215.08,586.495L214.747,586.495C212.636,579.272 210.08,571.717 206.525,562.272L190.413,519.05L184.302,519.05L178.858,593.939L184.08,593.939L186.413,559.495C187.302,547.05 187.858,534.05 188.08,525.272L188.302,525.272C190.525,533.495 193.747,542.495 197.969,554.161L212.747,593.939L216.413,593.939L232.191,553.272C236.525,542.05 239.525,533.383 242.302,525.272L242.525,525.272C242.525,533.495 243.413,547.272 244.08,558.495L246.302,593.939Z" style="fill:white;fill-rule:nonzero;"/>
            <path d="M626.246,593.939L631.58,593.939L631.58,523.495L656.024,523.495L656.024,519.05L601.802,519.05L601.802,523.495L626.246,523.495L626.246,593.939Z" style="fill:white;fill-rule:nonzero;"/>
            <path d="M663.691,593.939C666.691,594.05 671.024,594.495 676.691,594.495C687.357,594.495 695.469,592.383 700.469,587.383C703.802,583.828 706.024,579.161 706.024,573.05C706.024,560.828 696.469,555.383 690.135,553.939L690.135,553.606C697.58,551.05 703.024,544.606 703.024,536.939C703.024,531.717 701.469,527.717 698.357,524.717C694.246,520.495 688.135,518.495 678.802,518.495C673.246,518.495 667.913,519.161 663.691,520.161L663.691,593.939ZM669.024,523.717C670.691,523.272 673.58,522.939 678.469,522.939C689.58,522.939 697.58,526.717 697.58,537.272C697.58,545.495 690.802,551.939 679.913,551.939L669.024,551.939L669.024,523.717ZM669.024,556.272L678.469,556.272C690.357,556.272 700.469,561.383 700.469,573.161C700.469,585.939 689.691,590.05 678.246,590.05C674.246,590.05 671.246,589.939 669.024,589.495L669.024,556.272Z" style="fill:white;fill-rule:nonzero;"/>
            <path d="M758.469,567.717L767.913,593.939L773.357,593.939L746.357,519.05L741.246,519.05L714.135,593.939L719.58,593.939L728.802,567.717L758.469,567.717ZM730.469,563.272L739.691,538.05C741.246,533.272 742.469,529.383 743.58,525.05L743.802,525.05C744.913,529.272 745.913,533.05 747.691,538.272L756.802,563.272L730.469,563.272Z" style="fill:white;fill-rule:nonzero;"/>
        </g>
        <g transform="matrix(1,0,0,1,372.693,2465.27)">
            <path d="M159.824,104.939L162.491,104.939L162.491,89.606L162.602,89.606C164.435,92.828 167.824,94.55 171.657,94.55C178.102,94.55 183.769,89.661 183.769,80.161C183.769,72.328 179.157,66.661 172.324,66.661C167.657,66.661 164.38,68.828 162.435,72.328L162.324,72.328L162.157,67.272L159.602,67.272C159.769,69.828 159.824,72.439 159.824,75.772L159.824,104.939ZM162.491,78.217C162.491,77.495 162.713,76.661 162.88,75.939C164.046,71.55 167.824,68.883 171.713,68.883C177.769,68.883 181.102,74.272 181.102,80.272C181.102,87.383 177.602,92.328 171.491,92.328C167.38,92.328 163.824,89.661 162.713,85.55C162.546,84.883 162.491,84.161 162.491,83.439L162.491,78.217Z" style="fill:black;fill-rule:nonzero;"/>
            <path d="M210.602,80.328C210.713,79.828 210.713,79.439 210.713,78.717C210.713,74.883 209.046,66.661 200.324,66.661C193.435,66.661 188.324,72.217 188.324,81.106C188.324,88.939 193.102,94.495 200.769,94.495C205.435,94.495 208.157,93.328 209.157,92.772L208.491,90.717C206.991,91.439 204.991,92.217 201.102,92.217C195.602,92.217 190.935,88.828 190.935,80.328L210.602,80.328ZM191.102,78.217C191.602,74.106 194.102,68.883 199.991,68.883C206.435,68.883 207.991,74.495 207.935,78.217L191.102,78.217Z" style="fill:black;fill-rule:nonzero;"/>
            <path d="M227.546,94.55C233.435,94.55 240.269,90.272 240.269,80.383C240.269,72.217 235.269,66.661 227.88,66.661C221.269,66.661 215.269,71.717 215.269,80.828C215.269,89.161 220.602,94.55 227.491,94.55L227.546,94.55ZM227.602,92.328C222.157,92.328 217.935,87.328 217.935,80.661C217.935,74.939 220.991,68.883 227.824,68.883C234.88,68.883 237.602,75.606 237.602,80.495C237.602,87.328 233.213,92.328 227.657,92.328L227.602,92.328Z" style="fill:black;fill-rule:nonzero;"/>
            <path d="M246.991,104.939L249.657,104.939L249.657,89.606L249.769,89.606C251.602,92.828 254.991,94.55 258.824,94.55C265.269,94.55 270.935,89.661 270.935,80.161C270.935,72.328 266.324,66.661 259.491,66.661C254.824,66.661 251.546,68.828 249.602,72.328L249.491,72.328L249.324,67.272L246.769,67.272C246.935,69.828 246.991,72.439 246.991,75.772L246.991,104.939ZM249.657,78.217C249.657,77.495 249.88,76.661 250.046,75.939C251.213,71.55 254.991,68.883 258.88,68.883C264.935,68.883 268.269,74.272 268.269,80.272C268.269,87.383 264.769,92.328 258.657,92.328C254.546,92.328 250.991,89.661 249.88,85.55C249.713,84.883 249.657,84.161 249.657,83.439L249.657,78.217Z" style="fill:black;fill-rule:nonzero;"/>
            <rect x="277.713" y="54.439" width="2.667" height="39.5" style="fill:black;fill-rule:nonzero;"/>
            <path d="M309.546,80.328C309.657,79.828 309.657,79.439 309.657,78.717C309.657,74.883 307.991,66.661 299.269,66.661C292.38,66.661 287.269,72.217 287.269,81.106C287.269,88.939 292.046,94.495 299.713,94.495C304.38,94.495 307.102,93.328 308.102,92.772L307.435,90.717C305.935,91.439 303.935,92.217 300.046,92.217C294.546,92.217 289.88,88.828 289.88,80.328L309.546,80.328ZM290.046,78.217C290.546,74.106 293.046,68.883 298.935,68.883C305.38,68.883 306.935,74.495 306.88,78.217L290.046,78.217Z" style="fill:black;fill-rule:nonzero;"/>
            <path d="M315.269,55.495L315.991,67.772L317.769,67.772L318.435,55.495L315.269,55.495Z" style="fill:black;fill-rule:nonzero;"/>
            <path d="M324.269,92.661C326.046,93.772 328.491,94.495 331.046,94.495C336.491,94.495 340.046,91.439 340.046,86.883C340.046,82.828 337.491,80.661 333.157,78.939C329.546,77.439 327.657,76.272 327.657,73.495C327.657,71.05 329.435,68.883 332.824,68.883C335.491,68.883 337.213,69.828 338.157,70.495L339.157,68.328C337.824,67.383 335.713,66.661 333.269,66.661C328.102,66.661 325.046,69.995 325.046,73.883C325.046,77.106 327.435,79.495 331.824,81.161C335.657,82.717 337.435,84.272 337.435,87.217C337.435,89.995 335.435,92.272 331.213,92.272C328.824,92.272 326.657,91.328 325.213,90.439L324.269,92.661Z" style="fill:black;fill-rule:nonzero;"/>
            <path d="M376.88,90.661C375.435,91.328 373.38,92.217 370.213,92.217C364.046,92.217 359.657,87.661 359.657,80.661C359.657,74.383 363.324,68.939 370.491,68.939C373.435,68.939 375.491,69.717 376.769,70.495L377.713,68.328C376.713,67.606 373.991,66.661 370.713,66.661C362.769,66.661 356.991,72.383 356.991,80.883C356.991,88.883 362.102,94.495 369.769,94.495C373.657,94.495 376.435,93.328 377.602,92.772L376.88,90.661Z" style="fill:black;fill-rule:nonzero;"/>
            <path d="M383.991,93.939L386.657,93.939L386.657,77.661C386.657,76.55 386.713,75.828 386.991,74.995C388.157,71.717 391.269,68.995 395.046,68.995C400.491,68.995 402.38,73.383 402.38,78.161L402.38,93.939L405.046,93.939L405.046,77.883C405.046,67.939 398.269,66.661 395.769,66.661C393.769,66.661 391.935,67.272 390.38,68.217C388.824,69.161 387.546,70.55 386.769,72.05L386.657,72.05L386.657,54.439L383.991,54.439L383.991,93.939Z" style="fill:black;fill-rule:nonzero;"/>
            <path d="M423.824,94.55C429.713,94.55 436.546,90.272 436.546,80.383C436.546,72.217 431.546,66.661 424.157,66.661C417.546,66.661 411.546,71.717 411.546,80.828C411.546,89.161 416.88,94.55 423.769,94.55L423.824,94.55ZM423.88,92.328C418.435,92.328 414.213,87.328 414.213,80.661C414.213,74.939 417.269,68.883 424.102,68.883C431.157,68.883 433.88,75.606 433.88,80.495C433.88,87.328 429.491,92.328 423.935,92.328L423.88,92.328Z" style="fill:black;fill-rule:nonzero;"/>
            <path d="M445.991,93.939L445.991,67.272L443.324,67.272L443.324,93.939L445.991,93.939ZM444.602,61.939C445.935,61.939 446.769,60.883 446.769,59.661C446.769,58.383 445.88,57.328 444.657,57.328C443.435,57.328 442.491,58.439 442.491,59.661C442.491,60.883 443.324,61.939 444.546,61.939L444.602,61.939Z" style="fill:black;fill-rule:nonzero;"/>
            <path d="M472.602,90.661C471.157,91.328 469.102,92.217 465.935,92.217C459.769,92.217 455.38,87.661 455.38,80.661C455.38,74.383 459.046,68.939 466.213,68.939C469.157,68.939 471.213,69.717 472.491,70.495L473.435,68.328C472.435,67.606 469.713,66.661 466.435,66.661C458.491,66.661 452.713,72.383 452.713,80.883C452.713,88.883 457.824,94.495 465.491,94.495C469.38,94.495 472.157,93.328 473.324,92.772L472.602,90.661Z" style="fill:black;fill-rule:nonzero;"/>
            <path d="M499.769,80.328C499.88,79.828 499.88,79.439 499.88,78.717C499.88,74.883 498.213,66.661 489.491,66.661C482.602,66.661 477.491,72.217 477.491,81.106C477.491,88.939 482.269,94.495 489.935,94.495C494.602,94.495 497.324,93.328 498.324,92.772L497.657,90.717C496.157,91.439 494.157,92.217 490.269,92.217C484.769,92.217 480.102,88.828 480.102,80.328L499.769,80.328ZM480.269,78.217C480.769,74.106 483.269,68.883 489.157,68.883C495.602,68.883 497.157,74.495 497.102,78.217L480.269,78.217Z" style="fill:black;fill-rule:nonzero;"/>
            <path d="M74.296,154.383C74.296,156.383 74.241,158.717 74.074,160.606L76.463,160.606L76.685,155.828L76.796,155.828C78.907,159.439 82.019,161.217 86.352,161.217C92.185,161.217 98.241,156.495 98.241,146.995C98.241,138.995 93.574,133.328 86.852,133.328C82.13,133.328 78.852,135.495 77.074,138.939L76.963,138.939L76.963,121.106L74.296,121.106L74.296,154.383ZM76.963,144.995C76.963,144.05 77.13,143.328 77.296,142.661C78.574,138.217 82.296,135.55 86.185,135.55C92.241,135.55 95.574,140.939 95.574,147.05C95.574,153.995 92.074,158.995 85.963,158.995C81.796,158.995 78.352,156.328 77.185,152.272C77.019,151.606 76.963,150.939 76.963,150.328L76.963,144.995Z" style="fill:black;fill-rule:nonzero;"/>
            <path d="M121.63,143.828C121.63,139.106 120.13,133.328 112.407,133.328C110.019,133.328 107.019,133.995 104.574,135.606L105.407,137.55C107.352,136.161 109.796,135.55 112.13,135.55C118.463,135.495 118.963,140.772 118.963,143.383L118.963,144.106C108.074,143.995 102.685,147.717 102.685,153.883C102.685,157.439 105.13,161.217 110.519,161.217C114.796,161.217 117.741,158.828 119.074,156.772L119.185,156.772L119.574,160.606L122.019,160.606C121.685,158.55 121.63,156.383 121.63,154.272L121.63,143.828ZM118.963,152.05C118.963,152.495 118.907,153.106 118.685,153.661C117.796,156.272 115.241,158.995 110.796,158.995C108.019,158.995 105.463,157.272 105.463,153.439C105.463,147.05 113.13,146.161 118.963,146.328L118.963,152.05Z" style="fill:black;fill-rule:nonzero;"/>
            <path d="M128.185,159.328C129.963,160.439 132.407,161.161 134.963,161.161C140.407,161.161 143.963,158.106 143.963,153.55C143.963,149.495 141.407,147.328 137.074,145.606C133.463,144.106 131.574,142.939 131.574,140.161C131.574,137.717 133.352,135.55 136.741,135.55C139.407,135.55 141.13,136.495 142.074,137.161L143.074,134.995C141.741,134.05 139.63,133.328 137.185,133.328C132.019,133.328 128.963,136.661 128.963,140.55C128.963,143.772 131.352,146.161 135.741,147.828C139.574,149.383 141.352,150.939 141.352,153.883C141.352,156.661 139.352,158.939 135.13,158.939C132.741,158.939 130.574,157.995 129.13,157.106L128.185,159.328Z" style="fill:black;fill-rule:nonzero;"/>
            <path d="M171.019,146.995C171.13,146.495 171.13,146.106 171.13,145.383C171.13,141.55 169.463,133.328 160.741,133.328C153.852,133.328 148.741,138.883 148.741,147.772C148.741,155.606 153.519,161.161 161.185,161.161C165.852,161.161 168.574,159.995 169.574,159.439L168.907,157.383C167.407,158.106 165.407,158.883 161.519,158.883C156.019,158.883 151.352,155.495 151.352,146.995L171.019,146.995ZM151.519,144.883C152.019,140.772 154.519,135.55 160.407,135.55C166.852,135.55 168.407,141.161 168.352,144.883L151.519,144.883Z" style="fill:black;fill-rule:nonzero;"/>
            <path d="M177.852,154.383C177.852,156.383 177.796,158.717 177.63,160.606L180.019,160.606L180.241,155.828L180.352,155.828C182.463,159.439 185.574,161.217 189.907,161.217C195.741,161.217 201.796,156.495 201.796,146.995C201.796,138.995 197.13,133.328 190.407,133.328C185.685,133.328 182.407,135.495 180.63,138.939L180.519,138.939L180.519,121.106L177.852,121.106L177.852,154.383ZM180.519,144.995C180.519,144.05 180.685,143.328 180.852,142.661C182.13,138.217 185.852,135.55 189.741,135.55C195.796,135.55 199.13,140.939 199.13,147.05C199.13,153.995 195.63,158.995 189.519,158.995C185.352,158.995 181.907,156.328 180.741,152.272C180.574,151.606 180.519,150.939 180.519,150.328L180.519,144.995Z" style="fill:black;fill-rule:nonzero;"/>
            <path d="M218.63,161.217C224.519,161.217 231.352,156.939 231.352,147.05C231.352,138.883 226.352,133.328 218.963,133.328C212.352,133.328 206.352,138.383 206.352,147.495C206.352,155.828 211.685,161.217 218.574,161.217L218.63,161.217ZM218.685,158.995C213.241,158.995 209.019,153.995 209.019,147.328C209.019,141.606 212.074,135.55 218.907,135.55C225.963,135.55 228.685,142.272 228.685,147.161C228.685,153.995 224.296,158.995 218.741,158.995L218.685,158.995Z" style="fill:black;fill-rule:nonzero;"/>
            <path d="M254.741,143.828C254.741,139.106 253.241,133.328 245.519,133.328C243.13,133.328 240.13,133.995 237.685,135.606L238.519,137.55C240.463,136.161 242.907,135.55 245.241,135.55C251.574,135.495 252.074,140.772 252.074,143.383L252.074,144.106C241.185,143.995 235.796,147.717 235.796,153.883C235.796,157.439 238.241,161.217 243.63,161.217C247.907,161.217 250.852,158.828 252.185,156.772L252.296,156.772L252.685,160.606L255.13,160.606C254.796,158.55 254.741,156.383 254.741,154.272L254.741,143.828ZM252.074,152.05C252.074,152.495 252.019,153.106 251.796,153.661C250.907,156.272 248.352,158.995 243.907,158.995C241.13,158.995 238.574,157.272 238.574,153.439C238.574,147.05 246.241,146.161 252.074,146.328L252.074,152.05Z" style="fill:black;fill-rule:nonzero;"/>
            <path d="M263.296,160.606L265.963,160.606L265.963,145.883C265.963,144.995 266.019,144.106 266.185,143.328C266.907,139.05 269.519,135.883 273.185,135.883C273.685,135.883 274.074,135.883 274.463,135.939L274.463,133.439C274.13,133.383 273.741,133.328 273.352,133.328C269.741,133.328 266.963,135.939 265.796,139.328L265.63,139.328L265.519,133.939L263.074,133.939C263.241,136.55 263.296,139.272 263.296,141.939L263.296,160.606Z" style="fill:black;fill-rule:nonzero;"/>
            <path d="M297.741,121.106L297.741,138.05L297.63,138.05C296.463,135.717 293.519,133.328 288.907,133.328C282.352,133.328 276.852,138.883 276.907,147.772C276.907,155.717 281.796,161.217 288.407,161.217C293.352,161.217 296.519,158.495 297.907,155.55L298.019,155.55L298.241,160.606L300.63,160.606C300.463,158.717 300.407,156.383 300.407,154.439L300.407,121.106L297.741,121.106ZM297.741,149.828C297.741,150.661 297.685,151.383 297.463,152.05C296.352,156.439 292.741,158.995 288.907,158.995C282.574,158.995 279.574,153.495 279.574,147.495C279.574,140.606 283.241,135.55 289.074,135.55C293.407,135.55 296.574,138.495 297.463,142.05C297.685,142.828 297.741,143.772 297.741,144.495L297.741,149.828Z" style="fill:black;fill-rule:nonzero;"/>
            <path d="M306.796,162.828L324.63,122.55L321.907,122.55L304.241,162.828L306.796,162.828Z" style="fill:black;fill-rule:nonzero;"/>
            <path d="M328.852,160.606L331.519,160.606L331.519,144.161C331.519,143.217 331.685,142.328 331.907,141.55C332.907,138.439 335.741,135.55 339.296,135.55C343.63,135.55 345.907,139.106 345.907,143.883L345.907,160.606L348.574,160.606L348.574,143.495C348.574,142.495 348.796,141.606 349.019,140.828C350.074,138.05 352.685,135.55 356.019,135.55C360.63,135.55 362.963,139.106 362.963,145.106L362.963,160.606L365.63,160.606L365.63,144.883C365.63,134.772 359.519,133.328 356.907,133.328C354.074,133.328 352.296,134.106 350.574,135.495C349.574,136.328 348.574,137.55 347.852,139.106L347.741,139.106C346.574,135.772 343.741,133.328 340.074,133.328C335.685,133.328 333.13,135.55 331.407,138.606L331.296,138.606L331.13,133.939L328.63,133.939C328.796,136.05 328.852,137.883 328.852,140.328L328.852,160.606Z" style="fill:black;fill-rule:nonzero;"/>
            <path d="M377.019,160.606L377.019,133.939L374.352,133.939L374.352,160.606L377.019,160.606ZM375.63,128.606C376.963,128.606 377.796,127.55 377.796,126.328C377.796,125.05 376.907,123.995 375.685,123.995C374.463,123.995 373.519,125.106 373.519,126.328C373.519,127.55 374.352,128.606 375.574,128.606L375.63,128.606Z" style="fill:black;fill-rule:nonzero;"/>
            <path d="M403.63,157.328C402.185,157.995 400.13,158.883 396.963,158.883C390.796,158.883 386.407,154.328 386.407,147.328C386.407,141.05 390.074,135.606 397.241,135.606C400.185,135.606 402.241,136.383 403.519,137.161L404.463,134.995C403.463,134.272 400.741,133.328 397.463,133.328C389.519,133.328 383.741,139.05 383.741,147.55C383.741,155.55 388.852,161.161 396.519,161.161C400.407,161.161 403.185,159.995 404.352,159.439L403.63,157.328Z" style="fill:black;fill-rule:nonzero;"/>
            <path d="M410.685,160.606L413.352,160.606L413.352,145.883C413.352,144.995 413.407,144.106 413.574,143.328C414.296,139.05 416.907,135.883 420.574,135.883C421.074,135.883 421.463,135.883 421.852,135.939L421.852,133.439C421.519,133.383 421.13,133.328 420.741,133.328C417.13,133.328 414.352,135.939 413.185,139.328L413.019,139.328L412.907,133.939L410.463,133.939C410.63,136.55 410.685,139.272 410.685,141.939L410.685,160.606Z" style="fill:black;fill-rule:nonzero;"/>
            <path d="M436.574,161.217C442.463,161.217 449.296,156.939 449.296,147.05C449.296,138.883 444.296,133.328 436.907,133.328C430.296,133.328 424.296,138.383 424.296,147.495C424.296,155.828 429.63,161.217 436.519,161.217L436.574,161.217ZM436.63,158.995C431.185,158.995 426.963,153.995 426.963,147.328C426.963,141.606 430.019,135.55 436.852,135.55C443.907,135.55 446.63,142.272 446.63,147.161C446.63,153.995 442.241,158.995 436.685,158.995L436.63,158.995Z" style="fill:black;fill-rule:nonzero;"/>
            <path d="M453.907,158.661C455.852,160.106 459.63,161.161 462.852,161.161C470.852,161.161 474.741,156.328 474.741,150.883C474.741,145.328 471.463,142.495 465.296,139.995C459.907,137.883 457.519,135.772 457.519,131.661C457.519,128.717 459.574,124.828 465.63,124.828C468.852,124.828 471.241,125.883 472.241,126.606L473.241,124.328C471.963,123.495 469.296,122.606 465.796,122.606C459.407,122.606 454.907,126.606 454.907,132.106C454.907,137.161 458.519,140.272 464.519,142.439C469.963,144.495 472.13,146.995 472.13,151.161C472.13,155.772 468.685,158.939 463.074,158.939C459.963,158.939 457.019,157.939 454.907,156.495L453.907,158.661Z" style="fill:black;fill-rule:nonzero;"/>
            <path d="M481.852,160.606L484.519,160.606L484.519,144.328C484.519,143.217 484.574,142.495 484.852,141.661C486.019,138.383 489.13,135.661 492.907,135.661C498.352,135.661 500.241,140.05 500.241,144.828L500.241,160.606L502.907,160.606L502.907,144.55C502.907,134.606 496.13,133.328 493.63,133.328C491.63,133.328 489.796,133.939 488.241,134.883C486.685,135.828 485.407,137.217 484.63,138.717L484.519,138.717L484.519,121.106L481.852,121.106L481.852,160.606Z" style="fill:black;fill-rule:nonzero;"/>
            <path d="M514.296,160.606L514.296,133.939L511.63,133.939L511.63,160.606L514.296,160.606ZM512.907,128.606C514.241,128.606 515.074,127.55 515.074,126.328C515.074,125.05 514.185,123.995 512.963,123.995C511.741,123.995 510.796,125.106 510.796,126.328C510.796,127.55 511.63,128.606 512.852,128.606L512.907,128.606Z" style="fill:black;fill-rule:nonzero;"/>
            <path d="M543.296,146.995C543.407,146.495 543.407,146.106 543.407,145.383C543.407,141.55 541.741,133.328 533.019,133.328C526.13,133.328 521.019,138.883 521.019,147.772C521.019,155.606 525.796,161.161 533.463,161.161C538.13,161.161 540.852,159.995 541.852,159.439L541.185,157.383C539.685,158.106 537.685,158.883 533.796,158.883C528.296,158.883 523.63,155.495 523.63,146.995L543.296,146.995ZM523.796,144.883C524.296,140.772 526.796,135.55 532.685,135.55C539.13,135.55 540.685,141.161 540.63,144.883L523.796,144.883Z" style="fill:black;fill-rule:nonzero;"/>
            <rect x="550.185" y="121.106" width="2.667" height="39.5" style="fill:black;fill-rule:nonzero;"/>
            <path d="M580.574,121.106L580.574,138.05L580.463,138.05C579.296,135.717 576.352,133.328 571.741,133.328C565.185,133.328 559.685,138.883 559.741,147.772C559.741,155.717 564.63,161.217 571.241,161.217C576.185,161.217 579.352,158.495 580.741,155.55L580.852,155.55L581.074,160.606L583.463,160.606C583.296,158.717 583.241,156.383 583.241,154.439L583.241,121.106L580.574,121.106ZM580.574,149.828C580.574,150.661 580.519,151.383 580.296,152.05C579.185,156.439 575.574,158.995 571.741,158.995C565.407,158.995 562.407,153.495 562.407,147.495C562.407,140.606 566.074,135.55 571.907,135.55C576.241,135.55 579.407,138.495 580.296,142.05C580.519,142.828 580.574,143.772 580.574,144.495L580.574,149.828Z" style="fill:black;fill-rule:nonzero;"/>
        </g>
    </g>
</svg>
