<?xml version="1.0" standalone="no"?>
<!DOCTYPE svg PUBLIC "-//W3C//DTD SVG 1.1//EN" "http://www.w3.org/Graphics/SVG/1.1/DTD/svg11.dtd">
<svg width="100%" height="100%" viewBox="0 0 1600 400" version="1.1" xmlns="http://www.w3.org/2000/svg" xmlns:xlink="http://www.w3.org/1999/xlink" xml:space="preserve" style="fill-rule:evenodd;clip-rule:evenodd;stroke-linejoin:round;stroke-miterlimit:1.41421;">
    <g transform="matrix(1,0,0,1,-519.934,-507.659)">
        <g id="Layer1">
            <g>
                <g transform="matrix(4.16667,0,0,4.16667,0,0)">
                    <path d="M256.395,152.392L256.395,170.092C256.395,171.969 255.44,172.263 254.519,172.557L254.519,173.183L262.689,173.183L262.689,172.557C261.77,172.263 260.811,171.969 260.811,170.092L260.811,152.392C260.811,151.325 261.143,151.068 262.542,151.068C266.369,151.068 268.246,151.141 269.607,153.275L270.083,152.982L268.54,148.455L248.63,148.455L247.085,152.982L247.564,153.275C249.22,151.178 250.508,151.068 254.666,151.068C256.064,151.068 256.395,151.325 256.395,152.392" style="fill:rgb(3,4,5);fill-rule:nonzero;"/>
                </g>
                <g transform="matrix(4.16667,0,0,4.16667,0,0)">
                    <path d="M265.706,154.931C266.919,155.262 267.546,155.556 267.546,157.396L267.546,170.092C267.546,171.969 266.919,172.263 265.706,172.557L265.706,173.183L281.123,173.183L282.891,168.767L282.41,168.436C280.865,170.458 279.246,170.939 277.111,170.939L273.138,170.939C271.887,170.939 271.594,170.901 271.594,169.687L271.594,164.388L276.412,164.388C278.291,164.388 278.584,164.829 278.879,165.933L279.615,165.933L279.615,160.634L278.879,160.634C278.584,161.739 278.291,162.217 276.412,162.217L271.594,162.217L271.594,157.765C271.594,156.845 271.887,156.55 273.138,156.55L276.523,156.55C278.695,156.55 279.836,157.102 281.49,158.869L281.969,158.537L280.424,154.305L265.706,154.305L265.706,154.931Z" style="fill:rgb(3,4,5);fill-rule:nonzero;"/>
                </g>
                <g transform="matrix(4.16667,0,0,4.16667,0,0)">
                    <path d="M310.191,157.58L313.212,165.823L307.048,165.823L310.191,157.58ZM285.539,157.102L290.25,163.765L285.795,170.093C284.435,172.006 283.625,172.264 282.373,172.558L282.373,173.184L289.513,173.184L289.513,172.558C288.15,172.3 287.56,171.784 288.482,170.35L291.601,165.473L294.886,170.202C296.099,171.932 294.81,172.411 293.707,172.558L293.707,173.184L306.621,173.184L306.621,172.558C305.334,172.338 304.746,171.895 305.408,170.129L306.25,167.921L313.982,167.921L314.791,170.129C315.306,171.564 315.123,172.338 313.613,172.558L313.613,173.184L321.562,173.184L321.562,172.558C320.642,172.264 319.795,171.49 319.39,170.424L313.246,154.306L309.05,154.306L303.162,169.32C302.535,170.88 301.964,171.613 301.341,172.036C300.855,171.729 300.408,171.261 299.814,170.424L294.64,163.087L298.822,157.177C299.925,155.595 300.845,155.263 301.949,154.932L301.949,154.306L295.214,154.306L295.214,154.932C296.613,155.042 297.019,155.814 296.209,157.029L293.291,161.354L290.654,157.396C289.548,155.777 290.359,155.115 291.574,154.932L291.574,154.306L282.632,154.306L282.632,154.932C283.88,155.263 284.507,155.631 285.539,157.102" style="fill:rgb(3,4,5);fill-rule:nonzero;"/>
                </g>
                <g transform="matrix(4.16667,0,0,4.16667,0,0)">
                    <path d="M323.291,173.183C323.291,172.888 323.586,172.263 323.953,172.263C324.799,172.667 326.234,173.514 328.883,173.514C333.336,173.514 336.465,171.305 336.465,167.553C336.465,164.02 334.514,162.585 330.76,161.739L327.338,160.965C325.387,160.525 324.762,159.972 324.762,158.758C324.762,157.359 325.865,156.44 328.295,156.44C331.018,156.44 333.152,157.729 334.697,159.494L335.176,159.162L333.777,154.305L332.895,154.305C332.895,154.709 332.711,155.152 332.344,155.152C331.531,154.709 330.281,154.011 328.148,154.011C324.32,154.011 321.34,155.998 321.34,159.605C321.34,162.365 322.996,164.093 326.602,164.903L329.842,165.64C332.012,166.119 332.783,166.89 332.783,168.252C332.783,170.128 331.275,171.122 328.811,171.122C325.35,171.122 323.143,169.32 321.34,167.222L320.861,167.553L322.369,173.183L323.291,173.183Z" style="fill:rgb(3,4,5);fill-rule:nonzero;"/>
                </g>
                <g transform="matrix(4.16667,0,0,4.16667,0,0)">
                    <path d="M254.34,177.79C255.481,178.122 256.4,178.416 256.4,180.256L256.4,198.803C256.4,200.68 255.481,200.973 254.34,201.268L254.34,201.893L262.878,201.893L262.878,201.268C261.736,200.973 260.816,200.68 260.816,198.803L260.816,180.256C260.816,178.416 261.736,178.122 262.878,177.79L262.878,177.165L254.34,177.165L254.34,177.79Z" style="fill:rgb(3,4,5);fill-rule:nonzero;"/>
                </g>
                <g transform="matrix(4.16667,0,0,4.16667,0,0)">
                    <path d="M277.777,183.641C278.882,183.973 279.507,184.266 279.507,186.106L279.507,193.834L279.398,193.834L269.904,183.016L264.348,183.016L264.348,183.641C265.452,184.12 266.187,184.489 266.187,186.106L266.187,198.803C266.187,200.569 265.561,200.973 264.348,201.268L264.348,201.893L270.641,201.893L270.641,201.268C269.646,200.973 268.69,200.569 268.69,198.803L268.69,187.836L268.801,187.836L281.347,202.151L282.009,202.151L282.009,186.106C282.009,184.266 282.929,183.973 283.666,183.641L283.666,183.016L277.777,183.016L277.777,183.641Z" style="fill:rgb(3,4,5);fill-rule:nonzero;"/>
                </g>
                <g transform="matrix(4.16667,0,0,4.16667,0,0)">
                    <path d="M294.227,190.45L290.805,189.677C288.854,189.235 288.229,188.684 288.229,187.47C288.229,186.071 289.332,185.151 291.762,185.151C294.485,185.151 296.618,186.438 298.165,188.204L298.643,187.874L297.245,183.016L296.362,183.016C296.362,183.421 296.178,183.862 295.809,183.862C295,183.421 293.75,182.721 291.616,182.721C287.788,182.721 284.807,184.71 284.807,188.315C284.807,191.075 286.463,192.804 290.069,193.614L293.307,194.35C295.479,194.829 296.25,195.6 296.25,196.964C296.25,198.839 294.743,199.833 292.278,199.833C288.819,199.833 286.61,198.03 284.807,195.932L284.329,196.262L285.838,201.893L286.758,201.893C286.758,201.598 287.051,200.973 287.418,200.973C288.266,201.378 289.702,202.225 292.352,202.225C296.803,202.225 299.932,200.016 299.932,196.262C299.932,192.731 297.981,191.296 294.227,190.45" style="fill:rgb(3,4,5);fill-rule:nonzero;"/>
                </g>
                <g transform="matrix(4.16667,0,0,4.16667,0,0)">
                    <path d="M301.033,183.016L299.525,187.873L300.002,188.203C302.027,185.518 302.58,185.26 305.265,185.26C306.185,185.26 306.48,185.334 306.48,186.475L306.48,198.803C306.48,200.68 305.928,200.973 304.42,201.268L304.42,201.893L312.515,201.893L312.515,201.268C311.043,200.973 310.453,200.68 310.453,198.803L310.453,186.475C310.453,185.334 310.748,185.26 311.668,185.26C314.353,185.26 315.053,185.518 317.076,188.203L317.556,187.873L316.049,183.016L301.033,183.016Z" style="fill:rgb(3,4,5);fill-rule:nonzero;"/>
                </g>
                <g transform="matrix(4.16667,0,0,4.16667,0,0)">
                    <path d="M327.088,191.883L323.848,191.883L323.848,186.879C323.848,185.666 324.143,185.334 325.063,185.334L327.16,185.334C329.442,185.334 330.766,186.217 330.766,188.426C330.766,190.742 329.258,191.883 327.088,191.883M333.82,196.299C332.68,194.459 331.502,193.651 330.141,193.319L330.141,193.209C333.379,192.694 335.217,191 335.217,188.24C335.217,184.561 332.275,183.016 327.527,183.016L317.85,183.016L317.85,183.641C319.065,183.973 319.69,184.266 319.69,186.106L319.69,198.803C319.69,200.68 319.065,200.973 317.85,201.268L317.85,201.893L325.762,201.893L325.762,201.268C324.621,200.973 323.848,200.68 323.848,198.803L323.848,194.092L325.799,194.092C328.08,194.092 328.412,195.012 329.883,198.102C331.098,200.643 332.717,202.225 335.772,202.225C337.317,202.225 337.942,201.93 338.567,201.598L338.567,201.082C336.102,200.715 335.291,198.692 333.82,196.299" style="fill:rgb(3,4,5);fill-rule:nonzero;"/>
                </g>
                <g transform="matrix(4.16667,0,0,4.16667,0,0)">
                    <path d="M350.563,183.641C351.518,183.862 352.44,184.266 352.44,186.106L352.44,195.416C352.44,198.506 351.262,199.87 347.766,199.87C344.049,199.87 342.723,198.506 342.723,195.416L342.723,186.106C342.723,184.266 343.424,183.862 344.563,183.641L344.563,183.016L336.838,183.016L336.838,183.641C337.977,183.825 338.713,184.266 338.713,186.106L338.713,195.711C338.713,200.752 343.092,202.225 347.213,202.225C351.813,202.225 355.09,200.68 355.09,195.416L355.09,186.106C355.09,184.266 355.641,183.899 356.782,183.641L356.782,183.016L350.563,183.016L350.563,183.641Z" style="fill:rgb(3,4,5);fill-rule:nonzero;"/>
                </g>
                <g transform="matrix(4.16667,0,0,4.16667,0,0)">
                    <path d="M370.139,195.27L364.692,183.016L357.922,183.016L357.922,183.641C359.137,183.973 359.762,184.266 359.762,186.106L359.762,198.803C359.762,200.457 359.063,200.899 357.922,201.268L357.922,201.893L363.92,201.893L363.92,201.268C362.668,200.936 362.118,200.457 362.118,198.803L362.118,186.954L368.924,202.188L369.44,202.188L376.063,186.954L376.063,198.803C376.063,200.68 375.252,201.01 374.334,201.268L374.334,201.893L382.061,201.893L382.061,201.268C380.846,200.973 380.221,200.68 380.221,198.803L380.221,186.106C380.221,184.266 380.846,183.973 382.061,183.641L382.061,183.016L375.401,183.016L370.139,195.27Z" style="fill:rgb(3,4,5);fill-rule:nonzero;"/>
                </g>
                <g transform="matrix(4.16667,0,0,4.16667,0,0)">
                    <path d="M394.941,199.649L390.966,199.649C389.714,199.649 389.42,199.612 389.42,198.397L389.42,193.1L394.24,193.1C396.119,193.1 396.412,193.54 396.705,194.643L397.441,194.643L397.441,189.346L396.705,189.346C396.412,190.45 396.119,190.928 394.24,190.928L389.42,190.928L389.42,186.475C389.42,185.555 389.714,185.26 390.966,185.26L394.351,185.26C396.521,185.26 397.662,185.813 399.318,187.579L399.796,187.249L398.25,183.016L383.531,183.016L383.531,183.641C384.746,183.973 385.373,184.266 385.373,186.106L385.373,198.803C385.373,200.68 384.746,200.973 383.531,201.268L383.531,201.893L398.949,201.893L400.716,197.477L400.238,197.145C398.693,199.17 397.074,199.649 394.941,199.649" style="fill:rgb(3,4,5);fill-rule:nonzero;"/>
                </g>
                <g transform="matrix(4.16667,0,0,4.16667,0,0)">
                    <path d="M414.592,183.641C415.696,183.973 416.321,184.266 416.321,186.106L416.321,193.834L416.209,193.834L406.715,183.016L401.158,183.016L401.158,183.641C402.262,184.12 403,184.489 403,186.106L403,198.803C403,200.569 402.373,200.973 401.158,201.268L401.158,201.893L407.451,201.893L407.451,201.268C406.457,200.973 405.5,200.569 405.5,198.803L405.5,187.836L405.61,187.836L418.158,202.151L418.822,202.151L418.822,186.106C418.822,184.266 419.742,183.973 420.477,183.641L420.477,183.016L414.592,183.016L414.592,183.641Z" style="fill:rgb(3,4,5);fill-rule:nonzero;"/>
                </g>
                <g transform="matrix(4.16667,0,0,4.16667,0,0)">
                    <path d="M422.207,183.016L420.697,187.873L421.174,188.203C423.199,185.518 423.752,185.26 426.437,185.26C427.357,185.26 427.652,185.334 427.652,186.475L427.652,198.803C427.652,200.68 427.1,200.973 425.592,201.268L425.592,201.893L433.689,201.893L433.689,201.268C432.215,200.973 431.627,200.68 431.627,198.803L431.627,186.475C431.627,185.334 431.922,185.26 432.84,185.26C435.527,185.26 436.227,185.518 438.25,188.203L438.728,187.873L437.221,183.016L422.207,183.016Z" style="fill:rgb(3,4,5);fill-rule:nonzero;"/>
                </g>
                <g transform="matrix(4.16667,0,0,4.16667,0,0)">
                    <path d="M449.143,190.45L445.721,189.677C443.77,189.235 443.145,188.684 443.145,187.47C443.145,186.071 444.248,185.151 446.676,185.151C449.399,185.151 451.534,186.438 453.081,188.204L453.559,187.874L452.159,183.016L451.278,183.016C451.278,183.421 451.09,183.862 450.723,183.862C449.914,183.421 448.664,182.721 446.528,182.721C442.702,182.721 439.723,184.71 439.723,188.315C439.723,191.075 441.377,192.804 444.985,193.614L448.223,194.35C450.393,194.829 451.166,195.6 451.166,196.964C451.166,198.839 449.659,199.833 447.192,199.833C443.733,199.833 441.524,198.03 439.723,195.932L439.243,196.262L440.75,201.893L441.672,201.893C441.672,201.598 441.967,200.973 442.332,200.973C443.18,201.378 444.616,202.225 447.264,202.225C451.717,202.225 454.846,200.016 454.846,196.262C454.846,192.731 452.895,191.296 449.143,190.45" style="fill:rgb(3,4,5);fill-rule:nonzero;"/>
                </g>
                <g transform="matrix(4.16667,0,0,4.16667,0,0)">
                    <path d="M222.646,140.68L217.028,140.68L215.953,146.103L221.572,146.103L222.646,140.68ZM216.263,173.021L221.138,148.448L215.519,148.448L210.647,173.021L216.263,173.021ZM235.175,155.679L235.175,148.448L223.58,148.448L222.12,155.743L226.291,155.743L224.953,162.449L220.781,162.449L219.334,169.716C219.223,170.209 219.141,170.565 219.088,170.908C218.748,173.13 219.721,173.021 222.84,173.021L221.414,180.168L215.956,180.168C210.795,180.168 206.598,180.114 207.689,174.839C207.86,174.015 208.068,173.216 208.216,172.429L210.167,162.449L206.156,162.449L207.497,155.743L211.505,155.743L212.967,148.448L209.215,148.448L209.215,137.451L195.332,137.451L195.332,159.826L178.722,159.826C179.133,165.626 184.268,166.469 186.138,170.591C187.426,173.431 188.554,178.423 192.319,178.469C195.204,178.504 195.204,174.74 198.914,174.74C202.622,174.74 204.269,181.784 207.566,187.582C210.039,192.141 214.146,195.194 217.868,195.451C220.921,195.664 222.4,194.625 222.4,194.625C221.576,192.967 221.164,191.313 221.164,188.826C221.164,185.096 224.047,181.373 227.344,178.886C231.876,175.566 236.822,174.323 238.471,173.913L238.471,162.312C238.471,162.312 235.175,160.547 235.175,155.679" style="fill:rgb(238,33,36);fill-rule:nonzero;"/>
                </g>
            </g>
        </g>
    </g>
</svg>
