<?xml version="1.0" encoding="UTF-8" standalone="no"?>
<!-- Created with Inkscape (http://www.inkscape.org/) -->

<svg
   xmlns:dc="http://purl.org/dc/elements/1.1/"
   xmlns:cc="http://creativecommons.org/ns#"
   xmlns:rdf="http://www.w3.org/1999/02/22-rdf-syntax-ns#"
   xmlns:svg="http://www.w3.org/2000/svg"
   xmlns="http://www.w3.org/2000/svg"
   xmlns:sodipodi="http://sodipodi.sourceforge.net/DTD/sodipodi-0.dtd"
   xmlns:inkscape="http://www.inkscape.org/namespaces/inkscape"
   version="1.1"
   width="442.6683"
   height="63.396912"
   id="svg3028"
   xml:space="preserve"
   inkscape:version="0.48.4 r9939"
   sodipodi:docname="Xilinx_Zynq_logo.svg"
   inkscape:export-filename="/home/russellbush/Pictures/Snickerdoodle_Block_Diagram/Xilinx_Zynq_logo.png"
   inkscape:export-xdpi="734.52002"
   inkscape:export-ydpi="734.52002"><metadata
     id="metadata3971"><rdf:RDF><cc:Work
         rdf:about=""><dc:format>image/svg+xml</dc:format><dc:type
           rdf:resource="http://purl.org/dc/dcmitype/StillImage" /><dc:title></dc:title></cc:Work></rdf:RDF></metadata><sodipodi:namedview
     pagecolor="#ffffff"
     bordercolor="#666666"
     borderopacity="1"
     objecttolerance="10"
     gridtolerance="10"
     guidetolerance="10"
     inkscape:pageopacity="0"
     inkscape:pageshadow="2"
     inkscape:window-width="2495"
     inkscape:window-height="1416"
     id="namedview3969"
     showgrid="true"
     inkscape:snap-grids="true"
     inkscape:snap-object-midpoints="true"
     inkscape:snap-center="true"
     inkscape:object-paths="true"
     inkscape:object-nodes="true"
     fit-margin-top="0"
     fit-margin-left="0"
     fit-margin-right="0"
     fit-margin-bottom="0"
     inkscape:zoom="4"
     inkscape:cx="204.52619"
     inkscape:cy="70.168549"
     inkscape:window-x="65"
     inkscape:window-y="24"
     inkscape:window-maximized="1"
     inkscape:current-layer="svg3028"><inkscape:grid
       type="xygrid"
       id="grid4481"
       empspacing="5"
       visible="true"
       enabled="true"
       snapvisiblegridlinesonly="true"
       originx="-5.6843419e-14px"
       originy="-73.59766px" /></sodipodi:namedview><defs
     id="defs3032"><clipPath
       id="clipPath3044"><path
         d="m 0,0 1350,0 0,927 L 0,927 0,0"
         id="path3046"
         inkscape:connector-curvature="0" /></clipPath><clipPath
       id="clipPath3050"><path
         d="m 0.01416,927.01401 1350.00004,0 L 1350.0142,0 0.01416,0 l 0,927.01401 z"
         id="path3052"
         inkscape:connector-curvature="0" /></clipPath><clipPath
       id="clipPath3064"><path
         d="m 0,0 1350,0 0,927 L 0,927 0,0"
         id="path3066"
         inkscape:connector-curvature="0" /></clipPath><clipPath
       id="clipPath3070"><path
         d="m 0.01416,927.01401 1350.00004,0 L 1350.0142,0 0.01416,0 l 0,927.01401 z"
         id="path3072"
         inkscape:connector-curvature="0" /></clipPath><clipPath
       id="clipPath3082"><path
         d="m 685.50301,533.52901 605.99699,0 0,334.97099 -605.99699,0 0,-334.97099"
         id="path3084"
         inkscape:connector-curvature="0" /></clipPath><clipPath
       id="clipPath3088"><path
         d="m 674.496,58.5 617.004,0 0,810 -617.004,0 0,-810"
         id="path3090"
         inkscape:connector-curvature="0" /></clipPath><clipPath
       id="clipPath3094"><path
         d="m 0,0 1350,0 0,927 L 0,927 0,0"
         id="path3096"
         inkscape:connector-curvature="0" /></clipPath><clipPath
       id="clipPath3100"><path
         d="m 0.01416,927.01401 1350.00004,0 L 1350.0142,0 0.01416,0 l 0,927.01401 z"
         id="path3102"
         inkscape:connector-curvature="0" /></clipPath><clipPath
       id="clipPath3112"><path
         d="m 692.51401,207.504 598.98599,0 0,328.032 -598.98599,0 0,-328.032"
         id="path3114"
         inkscape:connector-curvature="0" /></clipPath><clipPath
       id="clipPath3118"><path
         d="m 674.496,58.5 617.004,0 0,810 -617.004,0 0,-810"
         id="path3120"
         inkscape:connector-curvature="0" /></clipPath><clipPath
       id="clipPath3124"><path
         d="m 0,0 1350,0 0,927 L 0,927 0,0"
         id="path3126"
         inkscape:connector-curvature="0" /></clipPath><clipPath
       id="clipPath3130"><path
         d="m 0.01416,927.01401 1350.00004,0 L 1350.0142,0 0.01416,0 l 0,927.01401 z"
         id="path3132"
         inkscape:connector-curvature="0" /></clipPath><clipPath
       id="clipPath3146"><path
         d="m 0,0 1350,0 0,927 L 0,927 0,0"
         id="path3148"
         inkscape:connector-curvature="0" /></clipPath><clipPath
       id="clipPath3152"><path
         d="m 0.01416,927.01401 1350.00004,0 L 1350.0142,0 0.01416,0 l 0,927.01401 z"
         id="path3154"
         inkscape:connector-curvature="0" /></clipPath><clipPath
       id="clipPath3188"><path
         d="m 674.496,58.5 617.004,0 0,810 -617.004,0 0,-810"
         id="path3190"
         inkscape:connector-curvature="0" /></clipPath><clipPath
       id="clipPath3194"><path
         d="m 0,0 1350,0 0,927 L 0,927 0,0"
         id="path3196"
         inkscape:connector-curvature="0" /></clipPath><clipPath
       id="clipPath3200"><path
         d="m 0.01416,927.01401 1350.00004,0 L 1350.0142,0 0.01416,0 l 0,927.01401 z"
         id="path3202"
         inkscape:connector-curvature="0" /></clipPath><clipPath
       id="clipPath3212"><path
         d="m 0,0 1350,0 0,927 L 0,927 0,0"
         id="path3214"
         inkscape:connector-curvature="0" /></clipPath><clipPath
       id="clipPath3218"><path
         d="m 0.01416,927.01401 1350.00004,0 L 1350.0142,0 0.01416,0 l 0,927.01401 z"
         id="path3220"
         inkscape:connector-curvature="0" /></clipPath><clipPath
       id="clipPath3236"><path
         d="m 674.496,46.50301 629.001,0 0,833.99398 -629.001,0 0,-833.99398"
         id="path3238"
         inkscape:connector-curvature="0" /></clipPath><clipPath
       id="clipPath3242"><path
         d="m 0,0 1350,0 0,927 L 0,927 0,0"
         id="path3244"
         inkscape:connector-curvature="0" /></clipPath><clipPath
       id="clipPath3248"><path
         d="m 0.01416,927.01401 1350.00004,0 L 1350.0142,0 0.01416,0 l 0,927.01401 z"
         id="path3250"
         inkscape:connector-curvature="0" /></clipPath><clipPath
       id="clipPath3262"><path
         d="m 0,0 1350,0 0,927 L 0,927 0,0"
         id="path3264"
         inkscape:connector-curvature="0" /></clipPath><clipPath
       id="clipPath3268"><path
         d="m 0.01416,927.01401 1350.00004,0 L 1350.0142,0 0.01416,0 l 0,927.01401 z"
         id="path3270"
         inkscape:connector-curvature="0" /></clipPath></defs><g
     transform="matrix(1.25,0,0,-1.25,-347.3358,753.76086)"
     id="g3038"><path
       d="m 277.86864,579.97338 7.71779,8.85617 11.31074,0 -7.69358,-8.85617"
       id="path3160"
       style="fill:#aa241b;fill-opacity:1;fill-rule:nonzero;stroke:none"
       inkscape:connector-curvature="0" /><path
       d="m 277.86864,579.97338 7.71779,-8.85452 11.31074,0 -7.69358,8.85452"
       id="path3162"
       style="fill:#780726;fill-opacity:1;fill-rule:nonzero;stroke:none"
       inkscape:connector-curvature="0" /><path
       d="m 277.86864,562.26273 7.71779,8.85613 11.31074,0 -7.69358,-8.85613"
       id="path3164"
       style="fill:#aa241b;fill-opacity:1;fill-rule:nonzero;stroke:none"
       inkscape:connector-curvature="0" /><path
       d="m 277.86864,562.26273 7.71779,-8.85617 11.31074,0 -7.69358,8.85617"
       id="path3166"
       style="fill:#780726;fill-opacity:1;fill-rule:nonzero;stroke:none"
       inkscape:connector-curvature="0" /><path
       d="m 312.28587,588.82791 -15.39033,0 7.69517,-8.85613"
       id="path3168"
       style="fill:#aa241b;fill-opacity:1;fill-rule:nonzero;stroke:none"
       inkscape:connector-curvature="0" /><path
       d="m 312.28587,553.40816 -15.39033,0 7.69517,8.85617"
       id="path3170"
       style="fill:#780726;fill-opacity:1;fill-rule:nonzero;stroke:none"
       inkscape:connector-curvature="0" /><path
       d="m 348.51249,553.41303 -8.3258,14.38619 -8.37266,-14.38619 -4.83476,0 10.84019,18.14888 -10.14973,17.266 4.93017,0 7.58679,-13.49035 7.58683,13.49035 4.93501,0 -10.20308,-17.266 10.94204,-18.14888"
       id="path3172"
       style="fill:#000000;fill-opacity:1;fill-rule:nonzero;stroke:none"
       inkscape:connector-curvature="0" /><path
       d="m 356.04271,553.41303 4.25587,0 0,35.41488 -4.25587,0 0,-35.41488 z"
       id="path3174"
       style="fill:#000000;fill-opacity:1;fill-rule:nonzero;stroke:none"
       inkscape:connector-curvature="0" /><path
       d="m 366.18599,553.41303 0,35.41488 4.25425,0 0,-31.55355 14.54304,0 0,-3.86133"
       id="path3176"
       style="fill:#000000;fill-opacity:1;fill-rule:nonzero;stroke:none"
       inkscape:connector-curvature="0" /><path
       d="m 388.51796,553.41303 4.25749,0 0,35.41652 -4.25749,0 0,-35.41652 z"
       id="path3178"
       style="fill:#000000;fill-opacity:1;fill-rule:nonzero;stroke:none"
       inkscape:connector-curvature="0" /><path
       d="m 421.02718,553.41303 -18.11169,27.36078 0,-27.36078 -4.25425,0 0,35.41652 3.93569,0 18.11494,-27.26537 0,27.26537 4.25424,0 0,-35.41652"
       id="path3180"
       style="fill:#000000;fill-opacity:1;fill-rule:nonzero;stroke:none"
       inkscape:connector-curvature="0" /><path
       d="m 449.09618,553.41303 -8.32256,14.38619 -8.3743,-14.38619 -4.83472,0 10.84341,18.14888 -10.15297,17.266 4.93175,0 7.58683,-13.49035 7.58523,13.49035 4.93177,0 -10.20472,-17.266 10.94368,-18.14888"
       id="path3182"
       style="fill:#000000;fill-opacity:1;fill-rule:nonzero;stroke:none"
       inkscape:connector-curvature="0" /><g
       transform="matrix(1.6169712,0,0,1.6169712,-874.22332,-277.05851)"
       id="g3184"
       style="fill:#000000"><g
         clip-path="url(#clipPath3188)"
         id="g3186"
         style="fill:#000000"><g
           clip-path="url(#clipPath3194)"
           id="g3192"
           style="fill:#000000"><g
             clip-path="url(#clipPath3200)"
             id="g3198"
             style="fill:#000000"><g
               id="g3204"
               style="fill:#000000"><path
                 d="m 821.742,516.89 c 0.127,0.28599 0.299,0.533 0.516,0.743 0.214,0.21099 0.466,0.376 0.75601,0.49501 0.28898,0.11898 0.59099,0.181 0.91598,0.181 0.32601,0 0.62801,-0.062 0.914,-0.181 0.28701,-0.11901 0.53501,-0.28402 0.752,-0.49501 0.21201,-0.21 0.38201,-0.45701 0.50901,-0.743 0.12699,-0.289 0.188,-0.59399 0.188,-0.927 0,-0.34101 -0.061,-0.653 -0.188,-0.942 -0.127,-0.28701 -0.297,-0.53901 -0.50901,-0.75 -0.21699,-0.213 -0.46499,-0.37799 -0.752,-0.497 -0.28599,-0.116 -0.58799,-0.175 -0.914,-0.175 -0.32499,0 -0.627,0.059 -0.91598,0.175 -0.29001,0.11901 -0.54201,0.284 -0.75601,0.497 -0.217,0.21099 -0.389,0.46299 -0.516,0.75 -0.125,0.289 -0.18901,0.60099 -0.18901,0.942 0,0.33301 0.064,0.638 0.18901,0.927 m 0.389,-1.731 c 0.097,-0.247 0.23401,-0.461 0.408,-0.639 0.176,-0.18299 0.381,-0.32299 0.619,-0.42401 0.238,-0.10598 0.49399,-0.15599 0.77199,-0.15599 0.27301,0 0.52901,0.05 0.763,0.15599 0.235,0.10102 0.44001,0.24102 0.61301,0.42401 0.17799,0.178 0.311,0.392 0.411,0.639 0.099,0.24701 0.15,0.514 0.15,0.804 0,0.281 -0.051,0.544 -0.15,0.78801 -0.1,0.24399 -0.23301,0.45498 -0.411,0.63299 -0.173,0.181 -0.37801,0.319 -0.61301,0.422 -0.23399,0.105 -0.48999,0.15601 -0.763,0.15601 -0.278,0 -0.53399,-0.051 -0.77199,-0.15601 -0.238,-0.103 -0.443,-0.241 -0.619,-0.422 -0.17399,-0.17801 -0.311,-0.389 -0.408,-0.63299 -0.1,-0.24401 -0.14901,-0.50701 -0.14901,-0.78801 0,-0.29 0.049,-0.55699 0.14901,-0.804 m 1.94301,2.17199 c 0.33,0 0.57199,-0.067 0.73098,-0.19699 0.15601,-0.13 0.23401,-0.32699 0.23401,-0.591 0,-0.24699 -0.068,-0.431 -0.207,-0.547 -0.13901,-0.114 -0.311,-0.182 -0.518,-0.20399 l 0.789,-1.21701 -0.461,0 -0.75,1.186 -0.455,0 0,-1.186 -0.42501,0 0,2.75599 1.06202,0 z m -0.18902,-1.22299 c 0.097,0 0.18902,0.004 0.27701,0.011 l 0.228,0.054 0.16299,0.13401 c 0.039,0.06 0.058,0.14399 0.058,0.25699 l -0.055,0.219 -0.138,0.125 -0.194,0.06 -0.218,0.017 -0.569,0 0,-0.877"
                 id="path3206"
                 style="fill:#000000;fill-opacity:1;fill-rule:nonzero;stroke:none"
                 inkscape:connector-curvature="0" /></g></g></g></g></g></g><g
     id="g4282"
     transform="matrix(0.89537942,0,0,0.89537942,236.73105,-43.395573)"><path
       inkscape:connector-curvature="0"
       id="path4494"
       d="m 161.76432,48.466127 25.34203,0 17.05714,19.51127 -25.28982,0 z"
       style="fill:#01456a;fill-opacity:1;stroke:none" /><path
       inkscape:connector-curvature="0"
       id="path4496"
       d="m 204.80748,68.342907 -17.30081,19.73755 25.37685,-0.0174 L 230,68.342907 z"
       style="fill:#b9c9d6;fill-opacity:1;stroke:none" /><g
       transform="translate(0,-110.72935)"
       style="fill:#6a6a6a;fill-opacity:1"
       id="g4537"><path
         inkscape:connector-curvature="0"
         style="fill:#6a6a6a;fill-opacity:1;stroke:none"
         d="m 151.5625,176.875 c -12.72161,0 -21.71875,11.06462 -21.71875,26.5 0,14.63988 7.22937,26.53125 21.71875,26.53125 5.98546,0 10.57816,-2.02835 13.96875,-5.21875 L 170.125,230 l 5.4375,0 -7.34375,-8.4375 c 3.57144,-5.06571 5.15625,-11.7706 5.15625,-18.1875 0,-14.63988 -6.92538,-26.5 -21.8125,-26.5 z m 0.0937,4.21875 c 12.62079,0 16.8125,11.56022 16.8125,22.28125 0,5.80829 -1.16243,10.82383 -3.375,14.625 l -3,-3.46875 -5.40625,0 5.90625,6.8125 c -2.74986,2.80852 -6.42654,4.375 -10.9375,4.375 -10.62101,0 -16.78125,-9.03833 -16.78125,-22.3125 0,-11.41506 5.42495,-22.3125 16.78125,-22.3125 z"
         id="path4504-6" /><path
         style="fill:#6a6a6a;fill-opacity:1;stroke:none"
         d="m 1.8007812,178.17578 0.00781,4.41406 29.1210938,0.004 L 0,225.39844 l 0,3.19922 37.160156,-0.004 -0.0039,-4.41797 -30.3320312,0.004 30.7343752,-42.83985 0,-3.16406 z"
         id="path4498"
         inkscape:connector-curvature="0" /><path
         style="fill:#6a6a6a;fill-opacity:1;stroke:none"
         d="m 39.769531,178.17578 5.820313,0 15.484375,24.91016 16.058594,-24.90625 6.03125,0 -19.691407,29.51562 0.0039,20.89844 -5.027344,0.004 0.0039,-21.08985 z"
         id="path4500"
         inkscape:connector-curvature="0" /><path
         style="fill:#6a6a6a;fill-opacity:1;stroke:none"
         d="m 86.171875,228.58594 4.824219,0.004 -0.0078,-43.38281 29.339846,43.37891 5.01953,0.004 -0.008,-50.41406 -5.02343,-0.004 0.41015,42.79297 -29.742182,-42.79297 -4.8125,0.004 z"
         id="path4502"
         inkscape:connector-curvature="0" /><g
         style="font-size:7.56284142px;font-style:normal;font-variant:normal;font-weight:normal;font-stretch:normal;text-align:start;line-height:125%;letter-spacing:0px;word-spacing:0px;writing-mode:lr-tb;text-anchor:start;fill:#6a6a6a;fill-opacity:1;stroke:none;font-family:Sans;-inkscape-font-specification:Sans"
         id="text4528"><path
           inkscape:connector-curvature="0"
           d="m 179.97349,230 -0.67947,0 0,-4.78586 -1.5362,0 0,-0.62039 3.75187,0 0,0.62039 -1.5362,0 0,4.78586"
           style="fill:#6a6a6a;fill-opacity:1;stroke:none;font-family:Droid Sans Fallback;-inkscape-font-specification:Droid Sans Fallback"
           id="path4533" /><path
           inkscape:connector-curvature="0"
           d="m 184.55256,230 -1.62483,-4.72678 -0.0295,0 c 0.0394,0.68933 0.0591,1.19155 0.0591,1.50666 l 0,3.22012 -0.62039,0 0,-5.40625 1.00444,0 1.5362,4.40181 0.0296,0 1.50665,-4.40181 1.03399,0 0,5.40625 -0.67948,0 0,-3.2792 c 0,-0.33481 0.01,-0.81734 0.0296,-1.44758 l -0.0296,0 -1.62483,4.72678 -0.59084,0"
           style="fill:#6a6a6a;fill-opacity:1;stroke:none;font-family:Droid Sans Fallback;-inkscape-font-specification:Droid Sans Fallback"
           id="path4535" /></g></g></g></svg>